<?xml version="1.0" encoding="UTF-8"?>
<svg xmlns="http://www.w3.org/2000/svg" version="1.1" width="200" height="200" viewBox="0 0 200 200"><rect x="0" y="0" width="200" height="200" fill="#ffffff"/><g transform="scale(6.897)"><g transform="translate(0,0)"><path fill-rule="evenodd" d="M9 0L9 3L10 3L10 4L8 4L8 5L9 5L9 6L8 6L8 8L6 8L6 9L7 9L7 10L5 10L5 9L4 9L4 8L2 8L2 10L3 10L3 11L1 11L1 12L0 12L0 15L1 15L1 16L2 16L2 17L1 17L1 18L0 18L0 19L1 19L1 18L2 18L2 20L1 20L1 21L3 21L3 20L4 20L4 18L5 18L5 19L7 19L7 20L6 20L6 21L8 21L8 23L9 23L9 24L10 24L10 25L11 25L11 26L12 26L12 27L11 27L11 28L10 28L10 27L9 27L9 25L8 25L8 27L9 27L9 28L10 28L10 29L18 29L18 25L19 25L19 27L20 27L20 25L21 25L21 26L22 26L22 25L24 25L24 26L23 26L23 27L22 27L22 29L26 29L26 28L23 28L23 27L24 27L24 26L25 26L25 27L26 27L26 26L28 26L28 27L27 27L27 29L28 29L28 27L29 27L29 26L28 26L28 23L27 23L27 20L28 20L28 22L29 22L29 20L28 20L28 16L29 16L29 13L28 13L28 12L29 12L29 11L27 11L27 10L24 10L24 9L25 9L25 8L24 8L24 9L23 9L23 8L21 8L21 9L20 9L20 7L21 7L21 5L20 5L20 4L18 4L18 5L17 5L17 4L16 4L16 3L17 3L17 2L18 2L18 3L20 3L20 2L18 2L18 1L17 1L17 0L15 0L15 1L17 1L17 2L16 2L16 3L15 3L15 2L14 2L14 0ZM11 1L11 2L10 2L10 3L11 3L11 4L12 4L12 6L11 6L11 7L10 7L10 6L9 6L9 7L10 7L10 8L9 8L9 9L12 9L12 10L8 10L8 11L6 11L6 12L8 12L8 11L9 11L9 13L11 13L11 14L9 14L9 15L8 15L8 16L7 16L7 15L6 15L6 14L8 14L8 13L5 13L5 15L4 15L4 12L3 12L3 15L4 15L4 16L3 16L3 17L2 17L2 18L4 18L4 16L5 16L5 17L6 17L6 18L7 18L7 19L8 19L8 21L9 21L9 20L10 20L10 22L9 22L9 23L10 23L10 24L11 24L11 25L13 25L13 26L14 26L14 28L15 28L15 26L14 26L14 23L15 23L15 24L16 24L16 22L19 22L19 23L18 23L18 24L17 24L17 25L16 25L16 26L17 26L17 25L18 25L18 24L19 24L19 25L20 25L20 22L19 22L19 20L20 20L20 18L21 18L21 20L22 20L22 18L21 18L21 17L23 17L23 18L25 18L25 19L23 19L23 20L25 20L25 24L26 24L26 25L27 25L27 23L26 23L26 20L25 20L25 19L27 19L27 17L26 17L26 16L27 16L27 15L26 15L26 16L25 16L25 15L24 15L24 14L26 14L26 13L27 13L27 11L25 11L25 12L26 12L26 13L24 13L24 12L23 12L23 9L22 9L22 10L21 10L21 11L22 11L22 12L21 12L21 14L20 14L20 15L21 15L21 16L18 16L18 15L19 15L19 12L20 12L20 11L17 11L17 12L14 12L14 10L15 10L15 9L14 9L14 8L15 8L15 7L16 7L16 6L17 6L17 9L16 9L16 10L18 10L18 8L19 8L19 7L20 7L20 6L19 6L19 7L18 7L18 6L17 6L17 5L15 5L15 3L14 3L14 2L13 2L13 1ZM12 2L12 3L13 3L13 2ZM12 6L12 9L13 9L13 10L14 10L14 9L13 9L13 6ZM14 6L14 7L15 7L15 6ZM0 9L0 10L1 10L1 9ZM19 9L19 10L20 10L20 9ZM28 9L28 10L29 10L29 9ZM10 11L10 12L11 12L11 13L12 13L12 14L11 14L11 15L9 15L9 16L8 16L8 19L9 19L9 16L15 16L15 17L17 17L17 18L16 18L16 21L18 21L18 20L17 20L17 18L18 18L18 16L15 16L15 15L14 15L14 14L15 14L15 13L14 13L14 12L13 12L13 11ZM12 12L12 13L13 13L13 14L14 14L14 13L13 13L13 12ZM17 12L17 13L16 13L16 15L18 15L18 14L17 14L17 13L18 13L18 12ZM1 13L1 15L2 15L2 13ZM22 13L22 15L23 15L23 13ZM5 15L5 16L6 16L6 17L7 17L7 16L6 16L6 15ZM23 16L23 17L24 17L24 16ZM11 17L11 18L13 18L13 20L12 20L12 19L11 19L11 23L12 23L12 24L13 24L13 23L12 23L12 21L15 21L15 18L13 18L13 17ZM19 17L19 18L20 18L20 17ZM25 17L25 18L26 18L26 17ZM21 21L21 24L24 24L24 21ZM22 22L22 23L23 23L23 22ZM16 27L16 28L17 28L17 27ZM19 28L19 29L20 29L20 28ZM0 0L0 7L7 7L7 0ZM1 1L1 6L6 6L6 1ZM2 2L2 5L5 5L5 2ZM22 0L22 7L29 7L29 0ZM23 1L23 6L28 6L28 1ZM24 2L24 5L27 5L27 2ZM0 22L0 29L7 29L7 22ZM1 23L1 28L6 28L6 23ZM2 24L2 27L5 27L5 24Z" fill="#000000"/></g></g></svg>
