<?xml version="1.0" encoding="UTF-8"?>
<svg xmlns="http://www.w3.org/2000/svg" version="1.1" width="200" height="200" viewBox="0 0 200 200"><rect x="0" y="0" width="200" height="200" fill="#ffffff"/><g transform="scale(6.897)"><g transform="translate(0,0)"><path fill-rule="evenodd" d="M11 0L11 1L9 1L9 2L8 2L8 4L9 4L9 5L11 5L11 4L13 4L13 5L12 5L12 7L11 7L11 6L10 6L10 8L11 8L11 9L9 9L9 11L7 11L7 10L6 10L6 11L7 11L7 12L5 12L5 13L4 13L4 11L5 11L5 8L3 8L3 10L0 10L0 12L1 12L1 13L0 13L0 15L2 15L2 17L1 17L1 16L0 16L0 21L2 21L2 20L3 20L3 21L4 21L4 20L5 20L5 21L8 21L8 23L9 23L9 24L8 24L8 26L10 26L10 29L12 29L12 28L15 28L15 29L16 29L16 28L17 28L17 27L18 27L18 26L19 26L19 28L18 28L18 29L19 29L19 28L20 28L20 29L21 29L21 27L22 27L22 28L24 28L24 29L25 29L25 26L27 26L27 27L26 27L26 29L27 29L27 27L28 27L28 28L29 28L29 26L28 26L28 25L29 25L29 24L28 24L28 23L27 23L27 21L29 21L29 20L27 20L27 19L29 19L29 18L28 18L28 17L29 17L29 16L28 16L28 15L29 15L29 11L28 11L28 12L27 12L27 14L26 14L26 13L25 13L25 11L26 11L26 10L27 10L27 8L25 8L25 9L24 9L24 11L23 11L23 12L22 12L22 10L23 10L23 9L21 9L21 5L20 5L20 3L21 3L21 1L20 1L20 0L17 0L17 2L18 2L18 1L20 1L20 3L15 3L15 2L16 2L16 1L15 1L15 0ZM11 1L11 2L10 2L10 3L9 3L9 4L10 4L10 3L13 3L13 4L14 4L14 5L15 5L15 8L14 8L14 6L13 6L13 7L12 7L12 8L13 8L13 9L12 9L12 10L11 10L11 11L10 11L10 12L13 12L13 13L12 13L12 17L13 17L13 18L12 18L12 20L11 20L11 19L10 19L10 18L11 18L11 13L9 13L9 14L8 14L8 12L7 12L7 13L5 13L5 16L3 16L3 17L4 17L4 18L5 18L5 17L6 17L6 18L8 18L8 19L6 19L6 20L8 20L8 19L9 19L9 20L10 20L10 21L9 21L9 22L10 22L10 26L11 26L11 28L12 28L12 25L11 25L11 23L12 23L12 24L13 24L13 23L14 23L14 21L15 21L15 23L17 23L17 22L18 22L18 25L19 25L19 22L20 22L20 20L21 20L21 19L23 19L23 18L24 18L24 20L25 20L25 21L27 21L27 20L26 20L26 18L27 18L27 16L25 16L25 17L23 17L23 18L22 18L22 16L24 16L24 15L25 15L25 14L23 14L23 13L24 13L24 12L23 12L23 13L22 13L22 12L21 12L21 10L20 10L20 8L19 8L19 7L20 7L20 5L19 5L19 4L18 4L18 5L19 5L19 7L18 7L18 6L17 6L17 7L16 7L16 5L17 5L17 4L14 4L14 3L13 3L13 2L15 2L15 1ZM8 6L8 7L9 7L9 6ZM6 8L6 9L8 9L8 8ZM16 8L16 9L13 9L13 10L14 10L14 13L13 13L13 16L14 16L14 15L17 15L17 14L18 14L18 13L19 13L19 17L18 17L18 16L17 16L17 18L16 18L16 17L15 17L15 20L16 20L16 22L17 22L17 20L16 20L16 19L18 19L18 18L19 18L19 17L20 17L20 19L21 19L21 16L20 16L20 15L21 15L21 14L20 14L20 13L21 13L21 12L18 12L18 13L16 13L16 14L14 14L14 13L15 13L15 12L17 12L17 10L18 10L18 9L19 9L19 8L18 8L18 9L17 9L17 8ZM16 9L16 10L15 10L15 11L16 11L16 10L17 10L17 9ZM3 10L3 11L4 11L4 10ZM1 11L1 12L2 12L2 13L1 13L1 14L2 14L2 15L4 15L4 13L3 13L3 12L2 12L2 11ZM6 14L6 15L8 15L8 16L6 16L6 17L8 17L8 16L10 16L10 14L9 14L9 15L8 15L8 14ZM25 17L25 18L26 18L26 17ZM13 18L13 19L14 19L14 18ZM3 19L3 20L4 20L4 19ZM13 20L13 21L12 21L12 22L13 22L13 21L14 21L14 20ZM10 21L10 22L11 22L11 21ZM18 21L18 22L19 22L19 21ZM21 21L21 24L24 24L24 21ZM22 22L22 23L23 23L23 22ZM26 23L26 25L27 25L27 23ZM14 24L14 25L15 25L15 26L14 26L14 27L15 27L15 28L16 28L16 27L17 27L17 24ZM22 25L22 26L25 26L25 25ZM0 0L0 7L7 7L7 0ZM1 1L1 6L6 6L6 1ZM2 2L2 5L5 5L5 2ZM22 0L22 7L29 7L29 0ZM23 1L23 6L28 6L28 1ZM24 2L24 5L27 5L27 2ZM0 22L0 29L7 29L7 22ZM1 23L1 28L6 28L6 23ZM2 24L2 27L5 27L5 24Z" fill="#000000"/></g></g></svg>
