<?xml version="1.0" encoding="UTF-8"?>
<svg xmlns="http://www.w3.org/2000/svg" version="1.1" width="200" height="200" viewBox="0 0 200 200"><rect x="0" y="0" width="200" height="200" fill="#ffffff"/><g transform="scale(6.897)"><g transform="translate(0,0)"><path fill-rule="evenodd" d="M12 0L12 1L10 1L10 2L9 2L9 1L8 1L8 7L9 7L9 6L10 6L10 7L11 7L11 9L10 9L10 8L5 8L5 9L4 9L4 10L3 10L3 8L2 8L2 9L0 9L0 11L1 11L1 14L0 14L0 15L2 15L2 10L3 10L3 12L4 12L4 13L7 13L7 14L3 14L3 17L2 17L2 16L1 16L1 18L0 18L0 19L2 19L2 20L0 20L0 21L2 21L2 20L3 20L3 21L4 21L4 19L9 19L9 20L8 20L8 24L9 24L9 22L10 22L10 23L11 23L11 24L12 24L12 23L13 23L13 24L14 24L14 22L15 22L15 23L16 23L16 22L17 22L17 25L16 25L16 24L15 24L15 25L11 25L11 26L10 26L10 25L9 25L9 26L8 26L8 27L9 27L9 26L10 26L10 27L11 27L11 29L12 29L12 27L14 27L14 28L15 28L15 27L16 27L16 28L17 28L17 29L18 29L18 28L19 28L19 29L21 29L21 28L20 28L20 27L21 27L21 26L22 26L22 27L23 27L23 26L24 26L24 27L29 27L29 26L28 26L28 25L29 25L29 22L28 22L28 23L27 23L27 24L26 24L26 23L25 23L25 20L26 20L26 21L29 21L29 20L26 20L26 19L29 19L29 17L28 17L28 15L29 15L29 14L28 14L28 13L29 13L29 12L28 12L28 11L29 11L29 10L28 10L28 11L27 11L27 10L24 10L24 11L25 11L25 12L24 12L24 13L23 13L23 12L22 12L22 11L23 11L23 10L22 10L22 8L21 8L21 5L20 5L20 7L19 7L19 6L18 6L18 8L17 8L17 9L18 9L18 10L15 10L15 9L16 9L16 7L17 7L17 5L18 5L18 4L20 4L20 3L19 3L19 2L20 2L20 0L17 0L17 1L18 1L18 2L16 2L16 0L14 0L14 1L15 1L15 2L12 2L12 1L13 1L13 0ZM10 2L10 3L11 3L11 5L10 5L10 4L9 4L9 5L10 5L10 6L11 6L11 7L12 7L12 5L13 5L13 8L12 8L12 9L13 9L13 10L14 10L14 11L13 11L13 12L14 12L14 11L15 11L15 12L16 12L16 11L15 11L15 10L14 10L14 9L15 9L15 8L14 8L14 6L15 6L15 7L16 7L16 6L15 6L15 5L16 5L16 4L18 4L18 3L12 3L12 2ZM13 4L13 5L15 5L15 4ZM19 8L19 10L18 10L18 12L17 12L17 13L16 13L16 14L20 14L20 13L19 13L19 12L21 12L21 13L22 13L22 12L21 12L21 8ZM23 8L23 9L28 9L28 8ZM6 9L6 10L4 10L4 12L7 12L7 13L10 13L10 12L9 12L9 11L10 11L10 10L8 10L8 9ZM6 10L6 11L8 11L8 10ZM11 10L11 14L13 14L13 15L14 15L14 13L12 13L12 10ZM19 10L19 11L20 11L20 10ZM26 11L26 12L25 12L25 13L24 13L24 14L26 14L26 16L25 16L25 15L23 15L23 14L21 14L21 19L22 19L22 20L23 20L23 19L22 19L22 18L23 18L23 16L25 16L25 18L24 18L24 19L26 19L26 18L27 18L27 15L28 15L28 14L27 14L27 13L26 13L26 12L27 12L27 11ZM6 15L6 16L8 16L8 17L5 17L5 16L4 16L4 17L5 17L5 18L12 18L12 19L10 19L10 20L9 20L9 21L10 21L10 22L11 22L11 20L13 20L13 21L14 21L14 20L15 20L15 18L17 18L17 19L16 19L16 21L18 21L18 22L20 22L20 20L17 20L17 19L20 19L20 17L19 17L19 16L20 16L20 15L18 15L18 16L17 16L17 15L15 15L15 16L13 16L13 18L12 18L12 15L9 15L9 16L8 16L8 15ZM22 15L22 16L23 16L23 15ZM9 16L9 17L11 17L11 16ZM15 16L15 17L16 17L16 16ZM17 17L17 18L19 18L19 17ZM3 18L3 19L4 19L4 18ZM13 18L13 19L14 19L14 18ZM5 20L5 21L7 21L7 20ZM21 21L21 24L24 24L24 21ZM22 22L22 23L23 23L23 22ZM18 24L18 25L19 25L19 24ZM25 24L25 25L24 25L24 26L25 26L25 25L26 25L26 26L27 26L27 25L28 25L28 24L27 24L27 25L26 25L26 24ZM15 25L15 26L16 26L16 25ZM20 25L20 26L18 26L18 27L17 27L17 28L18 28L18 27L20 27L20 26L21 26L21 25ZM22 25L22 26L23 26L23 25ZM11 26L11 27L12 27L12 26ZM22 28L22 29L23 29L23 28ZM24 28L24 29L27 29L27 28ZM28 28L28 29L29 29L29 28ZM0 0L0 7L7 7L7 0ZM1 1L1 6L6 6L6 1ZM2 2L2 5L5 5L5 2ZM22 0L22 7L29 7L29 0ZM23 1L23 6L28 6L28 1ZM24 2L24 5L27 5L27 2ZM0 22L0 29L7 29L7 22ZM1 23L1 28L6 28L6 23ZM2 24L2 27L5 27L5 24Z" fill="#000000"/></g></g></svg>
