<?xml version="1.0" encoding="UTF-8"?>
<svg xmlns="http://www.w3.org/2000/svg" version="1.1" width="200" height="200" viewBox="0 0 200 200"><rect x="0" y="0" width="200" height="200" fill="#ffffff"/><g transform="scale(6.897)"><g transform="translate(0,0)"><path fill-rule="evenodd" d="M8 0L8 3L9 3L9 4L10 4L10 3L9 3L9 0ZM10 0L10 1L11 1L11 3L13 3L13 4L14 4L14 2L15 2L15 3L16 3L16 4L20 4L20 5L21 5L21 2L20 2L20 1L21 1L21 0L20 0L20 1L19 1L19 0L16 0L16 1L18 1L18 2L19 2L19 3L16 3L16 2L15 2L15 0ZM12 1L12 2L13 2L13 1ZM11 4L11 5L8 5L8 9L7 9L7 8L6 8L6 9L7 9L7 10L5 10L5 8L2 8L2 9L1 9L1 10L2 10L2 9L3 9L3 10L4 10L4 11L3 11L3 12L1 12L1 11L0 11L0 13L2 13L2 14L0 14L0 21L1 21L1 16L2 16L2 15L3 15L3 18L2 18L2 19L4 19L4 20L5 20L5 21L8 21L8 22L9 22L9 21L10 21L10 22L11 22L11 23L9 23L9 24L8 24L8 27L9 27L9 28L10 28L10 29L15 29L15 28L12 28L12 27L13 27L13 26L14 26L14 25L15 25L15 26L16 26L16 25L17 25L17 26L18 26L18 27L19 27L19 28L20 28L20 27L21 27L21 28L22 28L22 26L21 26L21 25L25 25L25 24L26 24L26 25L28 25L28 23L27 23L27 22L28 22L28 18L29 18L29 16L27 16L27 17L28 17L28 18L27 18L27 20L24 20L24 19L23 19L23 20L22 20L22 19L20 19L20 18L22 18L22 17L23 17L23 18L24 18L24 17L25 17L25 16L26 16L26 15L27 15L27 14L26 14L26 13L28 13L28 11L27 11L27 10L29 10L29 8L26 8L26 9L24 9L24 8L18 8L18 9L16 9L16 8L17 8L17 5L16 5L16 8L15 8L15 9L14 9L14 10L13 10L13 12L12 12L12 10L11 10L11 9L12 9L12 8L14 8L14 7L15 7L15 6L14 6L14 5L12 5L12 4ZM18 5L18 7L19 7L19 5ZM9 6L9 9L11 9L11 7L12 7L12 6L11 6L11 7L10 7L10 6ZM13 6L13 7L14 7L14 6ZM20 6L20 7L21 7L21 6ZM18 9L18 10L19 10L19 11L17 11L17 10L16 10L16 11L17 11L17 12L16 12L16 13L15 13L15 10L14 10L14 12L13 12L13 13L12 13L12 15L11 15L11 14L9 14L9 12L10 12L10 11L9 11L9 12L7 12L7 11L8 11L8 10L7 10L7 11L6 11L6 12L3 12L3 14L4 14L4 17L5 17L5 20L9 20L9 19L11 19L11 20L12 20L12 19L13 19L13 18L14 18L14 19L16 19L16 21L17 21L17 22L15 22L15 21L14 21L14 20L13 20L13 21L14 21L14 22L13 22L13 23L14 23L14 22L15 22L15 24L17 24L17 22L18 22L18 23L20 23L20 22L18 22L18 21L19 21L19 20L18 20L18 19L16 19L16 18L15 18L15 16L14 16L14 15L15 15L15 14L17 14L17 12L19 12L19 13L18 13L18 15L17 15L17 16L16 16L16 17L17 17L17 18L18 18L18 16L19 16L19 18L20 18L20 17L22 17L22 16L19 16L19 15L20 15L20 14L19 14L19 13L20 13L20 12L21 12L21 15L22 15L22 13L23 13L23 14L24 14L24 15L23 15L23 17L24 17L24 16L25 16L25 14L24 14L24 13L25 13L25 12L27 12L27 11L26 11L26 10L27 10L27 9L26 9L26 10L25 10L25 12L24 12L24 11L20 11L20 10L24 10L24 9ZM6 12L6 13L7 13L7 14L5 14L5 16L6 16L6 17L7 17L7 16L6 16L6 15L8 15L8 16L9 16L9 17L11 17L11 19L12 19L12 18L13 18L13 17L14 17L14 16L13 16L13 15L12 15L12 16L13 16L13 17L11 17L11 16L10 16L10 15L8 15L8 13L7 13L7 12ZM23 12L23 13L24 13L24 12ZM13 13L13 14L15 14L15 13ZM6 18L6 19L9 19L9 18ZM17 20L17 21L18 21L18 20ZM11 21L11 22L12 22L12 21ZM21 21L21 24L24 24L24 21ZM22 22L22 23L23 23L23 22ZM25 22L25 23L26 23L26 24L27 24L27 23L26 23L26 22ZM9 24L9 27L10 27L10 28L11 28L11 27L12 27L12 26L13 26L13 24ZM19 24L19 25L20 25L20 24ZM11 25L11 26L12 26L12 25ZM23 26L23 28L25 28L25 26ZM26 26L26 27L27 27L27 28L28 28L28 26ZM16 28L16 29L18 29L18 28ZM0 0L0 7L7 7L7 0ZM1 1L1 6L6 6L6 1ZM2 2L2 5L5 5L5 2ZM22 0L22 7L29 7L29 0ZM23 1L23 6L28 6L28 1ZM24 2L24 5L27 5L27 2ZM0 22L0 29L7 29L7 22ZM1 23L1 28L6 28L6 23ZM2 24L2 27L5 27L5 24Z" fill="#000000"/></g></g></svg>
