<?xml version="1.0" encoding="UTF-8"?>
<svg xmlns="http://www.w3.org/2000/svg" version="1.1" width="200" height="200" viewBox="0 0 200 200"><rect x="0" y="0" width="200" height="200" fill="#ffffff"/><g transform="scale(6.897)"><g transform="translate(0,0)"><path fill-rule="evenodd" d="M12 0L12 1L11 1L11 2L12 2L12 1L13 1L13 4L14 4L14 1L16 1L16 0L14 0L14 1L13 1L13 0ZM18 0L18 1L17 1L17 2L16 2L16 3L15 3L15 5L14 5L14 7L15 7L15 10L13 10L13 9L14 9L14 8L13 8L13 9L12 9L12 8L11 8L11 6L12 6L12 7L13 7L13 5L12 5L12 3L9 3L9 2L10 2L10 1L9 1L9 2L8 2L8 4L10 4L10 5L9 5L9 6L8 6L8 7L9 7L9 6L10 6L10 10L11 10L11 11L13 11L13 12L15 12L15 11L16 11L16 12L17 12L17 13L20 13L20 14L19 14L19 15L20 15L20 16L19 16L19 17L20 17L20 19L22 19L22 18L23 18L23 20L20 20L20 21L19 21L19 22L20 22L20 23L18 23L18 20L19 20L19 18L16 18L16 17L17 17L17 16L16 16L16 17L15 17L15 18L14 18L14 17L13 17L13 16L15 16L15 15L18 15L18 14L16 14L16 13L15 13L15 14L13 14L13 15L12 15L12 14L11 14L11 12L9 12L9 13L8 13L8 15L9 15L9 16L6 16L6 17L5 17L5 20L4 20L4 21L5 21L5 20L6 20L6 21L8 21L8 23L9 23L9 24L8 24L8 26L10 26L10 23L11 23L11 24L12 24L12 23L14 23L14 22L13 22L13 20L16 20L16 23L17 23L17 24L18 24L18 25L25 25L25 24L26 24L26 26L23 26L23 27L22 27L22 28L23 28L23 27L24 27L24 29L25 29L25 27L26 27L26 29L27 29L27 27L28 27L28 28L29 28L29 26L28 26L28 25L29 25L29 24L28 24L28 25L27 25L27 24L26 24L26 21L27 21L27 22L28 22L28 21L29 21L29 20L27 20L27 19L29 19L29 18L28 18L28 17L27 17L27 15L26 15L26 13L27 13L27 14L28 14L28 15L29 15L29 12L28 12L28 13L27 13L27 12L26 12L26 11L27 11L27 10L26 10L26 11L25 11L25 9L27 9L27 8L25 8L25 9L24 9L24 11L23 11L23 9L21 9L21 8L20 8L20 7L21 7L21 5L20 5L20 4L21 4L21 1L20 1L20 0ZM18 1L18 2L17 2L17 3L18 3L18 4L19 4L19 3L20 3L20 1ZM16 4L16 5L15 5L15 7L16 7L16 8L17 8L17 9L18 9L18 10L17 10L17 12L20 12L20 13L21 13L21 18L22 18L22 16L23 16L23 14L22 14L22 12L21 12L21 11L22 11L22 10L20 10L20 9L18 9L18 8L19 8L19 7L20 7L20 5L19 5L19 7L18 7L18 6L17 6L17 7L16 7L16 5L17 5L17 4ZM10 5L10 6L11 6L11 5ZM3 8L3 9L4 9L4 10L2 10L2 9L0 9L0 16L1 16L1 14L2 14L2 15L3 15L3 16L5 16L5 15L7 15L7 14L6 14L6 13L7 13L7 12L8 12L8 8L6 8L6 9L7 9L7 10L6 10L6 11L5 11L5 12L4 12L4 13L3 13L3 12L2 12L2 11L4 11L4 10L5 10L5 8ZM11 9L11 10L12 10L12 9ZM28 9L28 10L29 10L29 9ZM1 10L1 11L2 11L2 10ZM6 11L6 12L5 12L5 13L4 13L4 14L3 14L3 13L2 13L2 12L1 12L1 13L2 13L2 14L3 14L3 15L4 15L4 14L5 14L5 13L6 13L6 12L7 12L7 11ZM9 13L9 14L10 14L10 16L11 16L11 14L10 14L10 13ZM24 14L24 15L25 15L25 14ZM25 16L25 17L23 17L23 18L24 18L24 20L26 20L26 19L27 19L27 17L26 17L26 16ZM0 17L0 21L2 21L2 20L3 20L3 19L4 19L4 17L3 17L3 19L2 19L2 18L1 18L1 17ZM6 17L6 18L7 18L7 19L6 19L6 20L8 20L8 17ZM12 17L12 18L11 18L11 19L10 19L10 18L9 18L9 20L10 20L10 22L12 22L12 21L11 21L11 19L12 19L12 20L13 20L13 19L14 19L14 18L13 18L13 17ZM15 18L15 19L16 19L16 20L17 20L17 19L16 19L16 18ZM25 18L25 19L26 19L26 18ZM21 21L21 24L24 24L24 21ZM22 22L22 23L23 23L23 22ZM13 24L13 26L12 26L12 27L11 27L11 28L16 28L16 29L18 29L18 28L20 28L20 29L21 29L21 27L20 27L20 26L17 26L17 25L16 25L16 26L15 26L15 25L14 25L14 24ZM13 26L13 27L15 27L15 26ZM16 26L16 27L17 27L17 28L18 28L18 27L17 27L17 26ZM26 26L26 27L27 27L27 26ZM0 0L0 7L7 7L7 0ZM1 1L1 6L6 6L6 1ZM2 2L2 5L5 5L5 2ZM22 0L22 7L29 7L29 0ZM23 1L23 6L28 6L28 1ZM24 2L24 5L27 5L27 2ZM0 22L0 29L7 29L7 22ZM1 23L1 28L6 28L6 23ZM2 24L2 27L5 27L5 24Z" fill="#000000"/></g></g></svg>
