<?xml version="1.0" encoding="UTF-8"?>
<svg xmlns="http://www.w3.org/2000/svg" version="1.1" width="200" height="200" viewBox="0 0 200 200"><rect x="0" y="0" width="200" height="200" fill="#ffffff"/><g transform="scale(6.897)"><g transform="translate(0,0)"><path fill-rule="evenodd" d="M8 0L8 3L9 3L9 4L10 4L10 7L9 7L9 5L8 5L8 9L9 9L9 8L10 8L10 7L11 7L11 9L10 9L10 10L9 10L9 11L8 11L8 10L6 10L6 11L8 11L8 12L5 12L5 8L2 8L2 9L4 9L4 11L2 11L2 10L0 10L0 11L2 11L2 13L1 13L1 12L0 12L0 14L6 14L6 15L5 15L5 16L6 16L6 17L4 17L4 18L6 18L6 19L5 19L5 20L3 20L3 18L2 18L2 17L3 17L3 15L2 15L2 17L1 17L1 16L0 16L0 21L1 21L1 18L2 18L2 21L7 21L7 20L6 20L6 19L8 19L8 18L6 18L6 17L10 17L10 18L11 18L11 20L9 20L9 21L8 21L8 22L9 22L9 21L10 21L10 23L9 23L9 24L8 24L8 27L11 27L11 28L9 28L9 29L12 29L12 28L13 28L13 29L14 29L14 28L15 28L15 27L14 27L14 26L17 26L17 25L18 25L18 27L16 27L16 28L17 28L17 29L18 29L18 28L20 28L20 27L21 27L21 28L22 28L22 26L21 26L21 25L23 25L23 27L24 27L24 28L23 28L23 29L24 29L24 28L25 28L25 27L27 27L27 28L28 28L28 26L26 26L26 25L27 25L27 24L28 24L28 25L29 25L29 23L28 23L28 22L29 22L29 21L28 21L28 18L29 18L29 17L28 17L28 18L27 18L27 17L26 17L26 19L25 19L25 20L24 20L24 19L20 19L20 18L22 18L22 17L23 17L23 18L24 18L24 17L25 17L25 16L26 16L26 15L27 15L27 16L29 16L29 15L27 15L27 14L28 14L28 11L27 11L27 13L26 13L26 10L29 10L29 8L26 8L26 10L25 10L25 9L24 9L24 8L20 8L20 9L24 9L24 10L20 10L20 11L22 11L22 12L23 12L23 11L24 11L24 13L22 13L22 15L21 15L21 14L20 14L20 13L21 13L21 12L20 12L20 13L19 13L19 11L18 11L18 10L16 10L16 9L17 9L17 8L16 8L16 7L17 7L17 5L15 5L15 4L14 4L14 7L13 7L13 6L12 6L12 5L11 5L11 4L13 4L13 3L10 3L10 2L14 2L14 1L11 1L11 0ZM18 0L18 1L19 1L19 2L18 2L18 3L19 3L19 4L18 4L18 7L19 7L19 5L21 5L21 4L20 4L20 3L21 3L21 2L20 2L20 1L21 1L21 0L20 0L20 1L19 1L19 0ZM9 1L9 2L10 2L10 1ZM15 1L15 2L16 2L16 4L17 4L17 1ZM11 6L11 7L12 7L12 8L13 8L13 7L12 7L12 6ZM15 6L15 7L14 7L14 8L15 8L15 9L16 9L16 8L15 8L15 7L16 7L16 6ZM20 6L20 7L21 7L21 6ZM6 8L6 9L7 9L7 8ZM18 8L18 9L19 9L19 8ZM12 9L12 10L11 10L11 11L9 11L9 13L8 13L8 15L6 15L6 16L10 16L10 17L11 17L11 18L12 18L12 13L13 13L13 14L14 14L14 15L15 15L15 16L13 16L13 18L14 18L14 19L16 19L16 18L17 18L17 19L19 19L19 18L20 18L20 17L22 17L22 16L20 16L20 14L19 14L19 13L18 13L18 12L17 12L17 11L16 11L16 10L14 10L14 9ZM12 10L12 11L13 11L13 13L14 13L14 14L15 14L15 12L16 12L16 15L17 15L17 16L15 16L15 17L17 17L17 18L19 18L19 17L18 17L18 16L19 16L19 14L17 14L17 12L16 12L16 11L15 11L15 12L14 12L14 11L13 11L13 10ZM10 12L10 13L12 13L12 12ZM6 13L6 14L7 14L7 13ZM9 14L9 15L11 15L11 14ZM23 14L23 17L24 17L24 14ZM25 14L25 15L26 15L26 14ZM12 19L12 20L11 20L11 24L12 24L12 25L13 25L13 26L14 26L14 25L15 25L15 24L12 24L12 22L13 22L13 23L14 23L14 22L16 22L16 21L17 21L17 20L16 20L16 21L15 21L15 20L13 20L13 19ZM26 19L26 22L25 22L25 23L26 23L26 24L25 24L25 25L26 25L26 24L27 24L27 22L28 22L28 21L27 21L27 19ZM13 21L13 22L14 22L14 21ZM19 21L19 23L17 23L17 24L16 24L16 25L17 25L17 24L18 24L18 25L19 25L19 27L20 27L20 24L19 24L19 23L20 23L20 21ZM21 21L21 24L24 24L24 21ZM22 22L22 23L23 23L23 22ZM9 24L9 26L10 26L10 24ZM11 26L11 27L12 27L12 26ZM0 0L0 7L7 7L7 0ZM1 1L1 6L6 6L6 1ZM2 2L2 5L5 5L5 2ZM22 0L22 7L29 7L29 0ZM23 1L23 6L28 6L28 1ZM24 2L24 5L27 5L27 2ZM0 22L0 29L7 29L7 22ZM1 23L1 28L6 28L6 23ZM2 24L2 27L5 27L5 24Z" fill="#000000"/></g></g></svg>
