<?xml version="1.0" encoding="UTF-8"?>
<svg xmlns="http://www.w3.org/2000/svg" version="1.1" width="200" height="200" viewBox="0 0 200 200"><rect x="0" y="0" width="200" height="200" fill="#ffffff"/><g transform="scale(6.897)"><g transform="translate(0,0)"><path fill-rule="evenodd" d="M8 0L8 1L10 1L10 2L9 2L9 3L8 3L8 4L9 4L9 5L11 5L11 6L10 6L10 7L11 7L11 6L12 6L12 9L11 9L11 8L8 8L8 9L9 9L9 10L10 10L10 9L11 9L11 10L12 10L12 9L13 9L13 6L14 6L14 7L15 7L15 9L17 9L17 10L18 10L18 11L17 11L17 13L16 13L16 10L15 10L15 12L14 12L14 10L13 10L13 11L10 11L10 12L9 12L9 11L8 11L8 10L6 10L6 9L7 9L7 8L4 8L4 9L3 9L3 8L2 8L2 9L0 9L0 11L1 11L1 13L2 13L2 14L0 14L0 16L2 16L2 15L3 15L3 18L2 18L2 17L1 17L1 18L0 18L0 19L1 19L1 20L0 20L0 21L1 21L1 20L2 20L2 21L4 21L4 20L5 20L5 19L7 19L7 18L5 18L5 19L4 19L4 20L2 20L2 19L3 19L3 18L4 18L4 16L5 16L5 14L6 14L6 15L7 15L7 14L9 14L9 15L10 15L10 16L9 16L9 19L8 19L8 20L9 20L9 19L10 19L10 22L12 22L12 23L8 23L8 25L9 25L9 26L8 26L8 27L9 27L9 28L11 28L11 27L14 27L14 26L15 26L15 27L17 27L17 28L18 28L18 29L19 29L19 27L21 27L21 28L20 28L20 29L23 29L23 28L26 28L26 29L29 29L29 28L28 28L28 27L29 27L29 26L28 26L28 27L27 27L27 28L26 28L26 26L27 26L27 25L26 25L26 24L25 24L25 22L26 22L26 21L27 21L27 23L28 23L28 25L29 25L29 20L28 20L28 19L29 19L29 12L28 12L28 11L29 11L29 8L28 8L28 9L26 9L26 8L25 8L25 10L24 10L24 9L23 9L23 11L22 11L22 12L20 12L20 11L19 11L19 10L20 10L20 9L19 9L19 6L20 6L20 7L21 7L21 5L20 5L20 4L21 4L21 3L20 3L20 2L18 2L18 1L19 1L19 0L18 0L18 1L17 1L17 0L13 0L13 2L12 2L12 0ZM11 2L11 4L12 4L12 6L13 6L13 5L14 5L14 4L15 4L15 3L14 3L14 2L13 2L13 3L12 3L12 2ZM17 2L17 3L18 3L18 2ZM9 3L9 4L10 4L10 3ZM19 3L19 4L20 4L20 3ZM17 4L17 5L18 5L18 6L17 6L17 7L16 7L16 5L15 5L15 7L16 7L16 8L17 8L17 9L18 9L18 8L17 8L17 7L18 7L18 6L19 6L19 5L18 5L18 4ZM8 6L8 7L9 7L9 6ZM21 8L21 9L22 9L22 8ZM2 9L2 10L3 10L3 9ZM4 10L4 11L2 11L2 13L3 13L3 14L5 14L5 13L6 13L6 14L7 14L7 13L8 13L8 11L5 11L5 10ZM25 10L25 11L24 11L24 12L23 12L23 14L22 14L22 13L21 13L21 14L19 14L19 13L20 13L20 12L19 12L19 11L18 11L18 12L19 12L19 13L18 13L18 14L19 14L19 15L18 15L18 16L15 16L15 14L16 14L16 13L15 13L15 14L12 14L12 13L14 13L14 12L12 12L12 13L11 13L11 12L10 12L10 15L12 15L12 16L13 16L13 17L12 17L12 18L11 18L11 21L13 21L13 20L12 20L12 19L14 19L14 22L16 22L16 21L18 21L18 23L17 23L17 24L16 24L16 25L15 25L15 23L12 23L12 24L11 24L11 25L10 25L10 26L9 26L9 27L10 27L10 26L13 26L13 25L12 25L12 24L14 24L14 25L15 25L15 26L16 26L16 25L17 25L17 24L18 24L18 25L19 25L19 26L21 26L21 25L20 25L20 22L19 22L19 20L20 20L20 19L19 19L19 18L17 18L17 19L15 19L15 18L13 18L13 17L14 17L14 16L15 16L15 17L18 17L18 16L19 16L19 15L21 15L21 14L22 14L22 15L26 15L26 17L25 17L25 18L24 18L24 16L22 16L22 18L23 18L23 19L21 19L21 20L24 20L24 19L25 19L25 21L26 21L26 20L27 20L27 21L28 21L28 20L27 20L27 19L28 19L28 16L27 16L27 14L28 14L28 12L27 12L27 11L26 11L26 10ZM3 12L3 13L4 13L4 12ZM6 12L6 13L7 13L7 12ZM25 12L25 13L26 13L26 14L27 14L27 12ZM13 15L13 16L14 16L14 15ZM6 16L6 17L7 17L7 16ZM1 18L1 19L2 19L2 18ZM17 19L17 20L19 20L19 19ZM6 20L6 21L7 21L7 20ZM8 21L8 22L9 22L9 21ZM21 21L21 24L24 24L24 21ZM22 22L22 23L23 23L23 22ZM22 25L22 28L23 28L23 26L26 26L26 25ZM17 26L17 27L18 27L18 26ZM12 28L12 29L13 29L13 28ZM14 28L14 29L15 29L15 28ZM0 0L0 7L7 7L7 0ZM1 1L1 6L6 6L6 1ZM2 2L2 5L5 5L5 2ZM22 0L22 7L29 7L29 0ZM23 1L23 6L28 6L28 1ZM24 2L24 5L27 5L27 2ZM0 22L0 29L7 29L7 22ZM1 23L1 28L6 28L6 23ZM2 24L2 27L5 27L5 24Z" fill="#000000"/></g></g></svg>
