<?xml version="1.0" encoding="UTF-8"?>
<svg xmlns="http://www.w3.org/2000/svg" version="1.1" width="200" height="200" viewBox="0 0 200 200"><rect x="0" y="0" width="200" height="200" fill="#ffffff"/><g transform="scale(6.897)"><g transform="translate(0,0)"><path fill-rule="evenodd" d="M9 0L9 1L8 1L8 7L9 7L9 4L10 4L10 3L11 3L11 4L12 4L12 3L14 3L14 4L13 4L13 6L12 6L12 5L10 5L10 7L11 7L11 8L5 8L5 11L2 11L2 10L1 10L1 11L2 11L2 12L4 12L4 13L2 13L2 14L4 14L4 13L5 13L5 11L9 11L9 12L8 12L8 13L7 13L7 12L6 12L6 13L7 13L7 14L6 14L6 15L0 15L0 16L1 16L1 17L2 17L2 16L3 16L3 18L0 18L0 19L2 19L2 20L0 20L0 21L3 21L3 20L4 20L4 21L8 21L8 24L9 24L9 25L10 25L10 23L12 23L12 24L11 24L11 25L12 25L12 26L11 26L11 27L9 27L9 26L8 26L8 27L9 27L9 28L11 28L11 27L12 27L12 28L13 28L13 29L14 29L14 28L15 28L15 29L16 29L16 28L15 28L15 27L20 27L20 26L21 26L21 29L22 29L22 28L23 28L23 26L24 26L24 27L25 27L25 28L24 28L24 29L25 29L25 28L26 28L26 29L27 29L27 28L26 28L26 26L27 26L27 27L29 27L29 26L28 26L28 25L29 25L29 20L28 20L28 19L29 19L29 16L27 16L27 20L26 20L26 18L25 18L25 20L24 20L24 18L22 18L22 17L25 17L25 16L26 16L26 15L29 15L29 12L28 12L28 11L29 11L29 9L28 9L28 8L23 8L23 12L22 12L22 13L23 13L23 12L25 12L25 13L27 13L27 14L26 14L26 15L25 15L25 14L24 14L24 15L23 15L23 14L21 14L21 11L22 11L22 10L21 10L21 9L22 9L22 8L19 8L19 9L20 9L20 11L18 11L18 7L19 7L19 3L21 3L21 0L19 0L19 1L20 1L20 2L17 2L17 3L18 3L18 5L16 5L16 7L15 7L15 5L14 5L14 4L15 4L15 3L14 3L14 2L10 2L10 1L14 1L14 0ZM15 0L15 1L17 1L17 0ZM20 5L20 7L21 7L21 5ZM11 6L11 7L12 7L12 8L14 8L14 10L13 10L13 9L12 9L12 10L13 10L13 11L12 11L12 12L11 12L11 10L9 10L9 9L6 9L6 10L9 10L9 11L10 11L10 12L9 12L9 13L8 13L8 14L7 14L7 15L6 15L6 16L8 16L8 19L6 19L6 18L7 18L7 17L6 17L6 18L5 18L5 17L4 17L4 20L5 20L5 19L6 19L6 20L8 20L8 21L9 21L9 23L10 23L10 22L12 22L12 23L13 23L13 24L12 24L12 25L13 25L13 26L12 26L12 27L13 27L13 28L14 28L14 27L13 27L13 26L14 26L14 25L17 25L17 24L18 24L18 22L17 22L17 21L18 21L18 20L22 20L22 18L21 18L21 15L19 15L19 14L20 14L20 12L18 12L18 13L17 13L17 14L14 14L14 13L13 13L13 14L12 14L12 15L11 15L11 14L10 14L10 12L11 12L11 13L12 13L12 12L13 12L13 11L14 11L14 12L17 12L17 8L14 8L14 6L13 6L13 7L12 7L12 6ZM17 6L17 7L18 7L18 6ZM2 8L2 9L3 9L3 10L4 10L4 9L3 9L3 8ZM15 9L15 10L14 10L14 11L16 11L16 9ZM25 9L25 10L24 10L24 11L26 11L26 12L27 12L27 11L26 11L26 10L27 10L27 9ZM0 12L0 14L1 14L1 12ZM8 15L8 16L9 16L9 18L10 18L10 15ZM14 15L14 16L13 16L13 17L12 17L12 20L11 20L11 21L12 21L12 22L13 22L13 20L14 20L14 22L15 22L15 24L16 24L16 23L17 23L17 22L16 22L16 21L17 21L17 20L18 20L18 18L19 18L19 19L20 19L20 18L19 18L19 16L17 16L17 15L16 15L16 16L17 16L17 20L16 20L16 17L15 17L15 15ZM22 15L22 16L23 16L23 15ZM24 15L24 16L25 16L25 15ZM13 17L13 18L14 18L14 19L15 19L15 17ZM9 19L9 21L10 21L10 19ZM15 20L15 21L16 21L16 20ZM21 21L21 24L24 24L24 21ZM25 21L25 22L26 22L26 21ZM19 22L19 24L20 24L20 22ZM22 22L22 23L23 23L23 22ZM26 23L26 24L28 24L28 23ZM13 24L13 25L14 25L14 24ZM18 25L18 26L19 26L19 25ZM22 25L22 26L23 26L23 25ZM24 25L24 26L26 26L26 25ZM17 28L17 29L18 29L18 28ZM28 28L28 29L29 29L29 28ZM0 0L0 7L7 7L7 0ZM1 1L1 6L6 6L6 1ZM2 2L2 5L5 5L5 2ZM22 0L22 7L29 7L29 0ZM23 1L23 6L28 6L28 1ZM24 2L24 5L27 5L27 2ZM0 22L0 29L7 29L7 22ZM1 23L1 28L6 28L6 23ZM2 24L2 27L5 27L5 24Z" fill="#000000"/></g></g></svg>
