<?xml version="1.0" encoding="UTF-8"?>
<svg xmlns="http://www.w3.org/2000/svg" version="1.1" width="200" height="200" viewBox="0 0 200 200"><rect x="0" y="0" width="200" height="200" fill="#ffffff"/><g transform="scale(6.897)"><g transform="translate(0,0)"><path fill-rule="evenodd" d="M9 0L9 1L8 1L8 7L9 7L9 8L5 8L5 11L7 11L7 12L6 12L6 13L5 13L5 12L2 12L2 11L1 11L1 10L0 10L0 11L1 11L1 12L0 12L0 13L3 13L3 14L2 14L2 15L1 15L1 14L0 14L0 17L1 17L1 18L0 18L0 19L3 19L3 20L0 20L0 21L3 21L3 20L4 20L4 19L5 19L5 21L8 21L8 24L9 24L9 26L8 26L8 27L9 27L9 28L10 28L10 29L12 29L12 27L11 27L11 28L10 28L10 27L9 27L9 26L10 26L10 25L11 25L11 26L12 26L12 25L11 25L11 24L12 24L12 22L11 22L11 21L10 21L10 17L9 17L9 16L11 16L11 15L13 15L13 14L14 14L14 15L15 15L15 13L13 13L13 12L12 12L12 11L13 11L13 10L14 10L14 11L15 11L15 10L17 10L17 11L18 11L18 12L19 12L19 13L17 13L17 14L16 14L16 16L17 16L17 18L16 18L16 17L15 17L15 20L13 20L13 19L12 19L12 21L14 21L14 23L15 23L15 24L14 24L14 25L13 25L13 26L15 26L15 28L13 28L13 29L18 29L18 28L19 28L19 29L21 29L21 28L20 28L20 27L21 27L21 25L23 25L23 26L24 26L24 27L29 27L29 26L28 26L28 25L29 25L29 24L28 24L28 25L27 25L27 24L26 24L26 23L27 23L27 21L28 21L28 23L29 23L29 20L26 20L26 19L24 19L24 18L26 18L26 15L25 15L25 14L24 14L24 12L23 12L23 10L22 10L22 8L21 8L21 10L22 10L22 12L21 12L21 13L20 13L20 12L19 12L19 11L20 11L20 10L19 10L19 6L18 6L18 8L17 8L17 9L16 9L16 8L15 8L15 4L16 4L16 3L15 3L15 2L17 2L17 5L16 5L16 7L17 7L17 5L18 5L18 3L19 3L19 5L20 5L20 3L19 3L19 2L20 2L20 0L16 0L16 1L15 1L15 2L13 2L13 3L15 3L15 4L14 4L14 5L11 5L11 6L10 6L10 4L9 4L9 1L10 1L10 2L11 2L11 1L12 1L12 0ZM13 0L13 1L14 1L14 0ZM17 1L17 2L18 2L18 1ZM11 3L11 4L12 4L12 3ZM9 6L9 7L10 7L10 8L11 8L11 7L12 7L12 8L13 8L13 9L15 9L15 8L14 8L14 6L13 6L13 7L12 7L12 6L11 6L11 7L10 7L10 6ZM20 6L20 7L21 7L21 6ZM2 8L2 10L4 10L4 9L3 9L3 8ZM23 8L23 9L25 9L25 10L24 10L24 11L25 11L25 13L26 13L26 9L27 9L27 10L28 10L28 11L29 11L29 10L28 10L28 8ZM6 9L6 10L7 10L7 11L8 11L8 12L7 12L7 13L6 13L6 14L7 14L7 15L4 15L4 14L5 14L5 13L4 13L4 14L3 14L3 15L2 15L2 16L1 16L1 17L2 17L2 18L3 18L3 19L4 19L4 18L5 18L5 19L6 19L6 20L9 20L9 19L8 19L8 16L7 16L7 15L8 15L8 14L9 14L9 15L11 15L11 14L12 14L12 13L11 13L11 14L9 14L9 13L8 13L8 12L11 12L11 11L12 11L12 9L11 9L11 10L10 10L10 9L9 9L9 10L8 10L8 9ZM18 10L18 11L19 11L19 10ZM27 12L27 14L28 14L28 17L27 17L27 19L29 19L29 14L28 14L28 13L29 13L29 12ZM7 13L7 14L8 14L8 13ZM19 13L19 14L20 14L20 15L19 15L19 17L18 17L18 18L17 18L17 20L19 20L19 21L17 21L17 22L16 22L16 23L17 23L17 22L18 22L18 25L17 25L17 24L16 24L16 25L15 25L15 26L16 26L16 28L18 28L18 27L17 27L17 26L18 26L18 25L19 25L19 27L20 27L20 25L19 25L19 22L20 22L20 20L19 20L19 19L20 19L20 15L21 15L21 18L23 18L23 16L25 16L25 15L24 15L24 14L20 14L20 13ZM3 15L3 16L4 16L4 15ZM22 15L22 16L23 16L23 15ZM5 16L5 18L6 18L6 19L7 19L7 18L6 18L6 17L7 17L7 16ZM18 18L18 19L19 19L19 18ZM22 19L22 20L23 20L23 19ZM15 20L15 21L16 21L16 20ZM25 20L25 21L26 21L26 20ZM9 21L9 23L11 23L11 22L10 22L10 21ZM21 21L21 24L24 24L24 21ZM22 22L22 23L23 23L23 22ZM16 25L16 26L17 26L17 25ZM24 25L24 26L27 26L27 25ZM22 28L22 29L23 29L23 28ZM24 28L24 29L27 29L27 28ZM28 28L28 29L29 29L29 28ZM0 0L0 7L7 7L7 0ZM1 1L1 6L6 6L6 1ZM2 2L2 5L5 5L5 2ZM22 0L22 7L29 7L29 0ZM23 1L23 6L28 6L28 1ZM24 2L24 5L27 5L27 2ZM0 22L0 29L7 29L7 22ZM1 23L1 28L6 28L6 23ZM2 24L2 27L5 27L5 24Z" fill="#000000"/></g></g></svg>
