<?xml version="1.0" encoding="UTF-8"?>
<svg xmlns="http://www.w3.org/2000/svg" version="1.1" width="200" height="200" viewBox="0 0 200 200"><rect x="0" y="0" width="200" height="200" fill="#ffffff"/><g transform="scale(6.897)"><g transform="translate(0,0)"><path fill-rule="evenodd" d="M9 0L9 2L10 2L10 4L8 4L8 5L10 5L10 4L11 4L11 6L10 6L10 7L9 7L9 6L8 6L8 8L6 8L6 9L7 9L7 10L5 10L5 9L4 9L4 8L2 8L2 9L1 9L1 11L2 11L2 12L3 12L3 11L2 11L2 9L3 9L3 10L4 10L4 11L5 11L5 12L4 12L4 13L3 13L3 14L4 14L4 13L5 13L5 14L6 14L6 15L5 15L5 16L6 16L6 17L3 17L3 18L4 18L4 19L3 19L3 20L4 20L4 21L7 21L7 20L8 20L8 23L10 23L10 24L9 24L9 25L8 25L8 27L10 27L10 28L9 28L9 29L11 29L11 27L10 27L10 26L9 26L9 25L10 25L10 24L12 24L12 23L13 23L13 22L14 22L14 23L16 23L16 22L17 22L17 23L18 23L18 24L19 24L19 23L20 23L20 25L19 25L19 28L20 28L20 29L22 29L22 26L21 26L21 25L23 25L23 28L25 28L25 27L24 27L24 25L26 25L26 27L27 27L27 28L26 28L26 29L28 29L28 27L29 27L29 26L28 26L28 25L29 25L29 23L28 23L28 22L29 22L29 20L28 20L28 21L27 21L27 19L28 19L28 17L29 17L29 16L28 16L28 15L29 15L29 13L28 13L28 12L26 12L26 13L25 13L25 12L23 12L23 13L25 13L25 14L23 14L23 15L22 15L22 13L21 13L21 12L20 12L20 11L19 11L19 12L18 12L18 11L17 11L17 12L16 12L16 10L17 10L17 9L15 9L15 8L16 8L16 7L17 7L17 8L19 8L19 9L23 9L23 8L20 8L20 7L21 7L21 6L20 6L20 5L19 5L19 4L20 4L20 3L21 3L21 0L20 0L20 1L19 1L19 0L17 0L17 1L18 1L18 2L20 2L20 3L19 3L19 4L18 4L18 3L17 3L17 2L14 2L14 1L15 1L15 0L11 0L11 1L13 1L13 2L10 2L10 0ZM13 2L13 3L14 3L14 5L13 5L13 4L12 4L12 5L13 5L13 8L11 8L11 7L12 7L12 6L11 6L11 7L10 7L10 8L9 8L9 9L10 9L10 11L12 11L12 12L14 12L14 13L15 13L15 15L14 15L14 14L13 14L13 13L11 13L11 12L8 12L8 11L6 11L6 12L7 12L7 13L6 13L6 14L7 14L7 13L10 13L10 14L9 14L9 15L6 15L6 16L10 16L10 17L11 17L11 19L12 19L12 20L10 20L10 19L9 19L9 17L8 17L8 19L9 19L9 21L10 21L10 22L13 22L13 21L14 21L14 22L15 22L15 20L13 20L13 19L12 19L12 17L14 17L14 19L15 19L15 18L16 18L16 17L17 17L17 20L19 20L19 21L20 21L20 20L21 20L21 19L23 19L23 20L24 20L24 19L25 19L25 18L22 18L22 17L21 17L21 18L20 18L20 20L19 20L19 18L18 18L18 16L21 16L21 13L20 13L20 12L19 12L19 13L16 13L16 12L14 12L14 11L15 11L15 9L14 9L14 10L13 10L13 8L15 8L15 7L16 7L16 6L17 6L17 7L18 7L18 6L19 6L19 7L20 7L20 6L19 6L19 5L16 5L16 3L14 3L14 2ZM14 5L14 7L15 7L15 5ZM24 8L24 10L25 10L25 11L26 11L26 10L27 10L27 9L26 9L26 10L25 10L25 8ZM11 9L11 10L12 10L12 11L13 11L13 10L12 10L12 9ZM28 9L28 10L29 10L29 9ZM0 12L0 16L1 16L1 17L2 17L2 13L1 13L1 12ZM19 13L19 14L18 14L18 15L17 15L17 16L18 16L18 15L20 15L20 13ZM27 13L27 14L25 14L25 15L24 15L24 17L26 17L26 16L27 16L27 17L28 17L28 16L27 16L27 14L28 14L28 13ZM10 14L10 15L11 15L11 17L12 17L12 15L11 15L11 14ZM3 15L3 16L4 16L4 15ZM13 15L13 16L14 16L14 17L16 17L16 16L14 16L14 15ZM25 15L25 16L26 16L26 15ZM6 17L6 18L5 18L5 20L7 20L7 19L6 19L6 18L7 18L7 17ZM0 18L0 19L1 19L1 18ZM26 18L26 19L27 19L27 18ZM1 20L1 21L2 21L2 20ZM25 20L25 21L26 21L26 22L25 22L25 23L26 23L26 24L28 24L28 23L26 23L26 22L27 22L27 21L26 21L26 20ZM17 21L17 22L18 22L18 21ZM21 21L21 24L24 24L24 21ZM22 22L22 23L23 23L23 22ZM13 24L13 25L14 25L14 24ZM15 24L15 26L14 26L14 27L13 27L13 26L12 26L12 25L11 25L11 26L12 26L12 28L13 28L13 29L15 29L15 28L17 28L17 29L18 29L18 28L17 28L17 27L18 27L18 25L17 25L17 24ZM27 26L27 27L28 27L28 26ZM14 27L14 28L15 28L15 27ZM20 27L20 28L21 28L21 27ZM0 0L0 7L7 7L7 0ZM1 1L1 6L6 6L6 1ZM2 2L2 5L5 5L5 2ZM22 0L22 7L29 7L29 0ZM23 1L23 6L28 6L28 1ZM24 2L24 5L27 5L27 2ZM0 22L0 29L7 29L7 22ZM1 23L1 28L6 28L6 23ZM2 24L2 27L5 27L5 24Z" fill="#000000"/></g></g></svg>
