<?xml version="1.0" encoding="UTF-8"?>
<svg xmlns="http://www.w3.org/2000/svg" version="1.1" width="200" height="200" viewBox="0 0 200 200"><rect x="0" y="0" width="200" height="200" fill="#ffffff"/><g transform="scale(6.897)"><g transform="translate(0,0)"><path fill-rule="evenodd" d="M8 0L8 3L9 3L9 1L10 1L10 2L11 2L11 1L12 1L12 0L11 0L11 1L10 1L10 0ZM14 0L14 1L13 1L13 2L12 2L12 3L10 3L10 4L9 4L9 5L8 5L8 10L6 10L6 9L7 9L7 8L6 8L6 9L5 9L5 8L2 8L2 9L0 9L0 11L2 11L2 10L5 10L5 11L3 11L3 12L2 12L2 13L0 13L0 14L1 14L1 15L0 15L0 21L1 21L1 16L2 16L2 13L3 13L3 15L4 15L4 14L5 14L5 15L7 15L7 16L3 16L3 17L2 17L2 18L3 18L3 19L2 19L2 20L3 20L3 19L4 19L4 18L5 18L5 17L9 17L9 19L8 19L8 18L6 18L6 19L5 19L5 21L7 21L7 20L9 20L9 21L8 21L8 22L10 22L10 23L9 23L9 24L8 24L8 27L11 27L11 26L12 26L12 25L11 25L11 26L10 26L10 25L9 25L9 24L12 24L12 22L13 22L13 25L14 25L14 26L13 26L13 28L14 28L14 29L19 29L19 28L20 28L20 27L21 27L21 28L22 28L22 26L21 26L21 25L23 25L23 27L25 27L25 26L26 26L26 25L27 25L27 24L25 24L25 22L26 22L26 21L25 21L25 20L26 20L26 19L25 19L25 20L24 20L24 19L22 19L22 20L21 20L21 19L20 19L20 18L22 18L22 17L23 17L23 18L24 18L24 17L25 17L25 18L26 18L26 17L27 17L27 16L25 16L25 15L27 15L27 14L26 14L26 13L25 13L25 12L26 12L26 11L28 11L28 10L29 10L29 8L26 8L26 9L28 9L28 10L25 10L25 9L24 9L24 8L21 8L21 5L20 5L20 4L21 4L21 2L20 2L20 1L21 1L21 0L20 0L20 1L19 1L19 0L18 0L18 1L17 1L17 2L15 2L15 1L16 1L16 0ZM18 1L18 2L17 2L17 3L19 3L19 1ZM14 2L14 3L15 3L15 2ZM12 3L12 4L10 4L10 5L9 5L9 7L10 7L10 6L11 6L11 8L9 8L9 9L10 9L10 11L5 11L5 12L4 12L4 13L5 13L5 14L7 14L7 13L8 13L8 16L9 16L9 17L10 17L10 16L11 16L11 17L13 17L13 16L14 16L14 17L16 17L16 19L17 19L17 21L15 21L15 22L17 22L17 23L16 23L16 24L17 24L17 23L18 23L18 25L17 25L17 26L18 26L18 25L19 25L19 27L20 27L20 24L19 24L19 23L18 23L18 22L19 22L19 21L18 21L18 19L19 19L19 18L20 18L20 17L22 17L22 16L20 16L20 14L19 14L19 13L20 13L20 12L22 12L22 13L21 13L21 15L22 15L22 13L24 13L24 11L23 11L23 10L24 10L24 9L20 9L20 8L19 8L19 7L20 7L20 5L19 5L19 4L13 4L13 3ZM13 5L13 6L12 6L12 7L13 7L13 6L14 6L14 7L15 7L15 6L16 6L16 8L14 8L14 9L16 9L16 11L15 11L15 12L14 12L14 10L13 10L13 8L12 8L12 10L13 10L13 12L8 12L8 13L9 13L9 14L10 14L10 13L11 13L11 14L12 14L12 15L14 15L14 16L15 16L15 15L17 15L17 16L16 16L16 17L17 17L17 16L19 16L19 14L15 14L15 13L16 13L16 11L18 11L18 12L17 12L17 13L18 13L18 12L19 12L19 11L18 11L18 10L17 10L17 6L16 6L16 5ZM18 5L18 7L19 7L19 5ZM18 8L18 9L19 9L19 8ZM20 10L20 11L22 11L22 12L23 12L23 11L22 11L22 10ZM6 12L6 13L7 13L7 12ZM13 12L13 14L14 14L14 15L15 15L15 14L14 14L14 12ZM27 12L27 13L28 13L28 12ZM24 14L24 15L23 15L23 17L24 17L24 15L25 15L25 14ZM9 15L9 16L10 16L10 15ZM28 15L28 16L29 16L29 15ZM3 17L3 18L4 18L4 17ZM18 17L18 18L17 18L17 19L18 19L18 18L19 18L19 17ZM28 17L28 18L27 18L27 21L28 21L28 22L29 22L29 21L28 21L28 18L29 18L29 17ZM10 18L10 20L11 20L11 21L10 21L10 22L11 22L11 21L13 21L13 22L14 22L14 20L15 20L15 18L14 18L14 19L12 19L12 18ZM6 19L6 20L7 20L7 19ZM11 19L11 20L12 20L12 19ZM17 21L17 22L18 22L18 21ZM21 21L21 24L24 24L24 21ZM22 22L22 23L23 23L23 22ZM28 23L28 24L29 24L29 23ZM24 25L24 26L25 26L25 25ZM14 26L14 27L16 27L16 28L18 28L18 27L16 27L16 26ZM27 26L27 28L28 28L28 26ZM10 28L10 29L12 29L12 28ZM23 28L23 29L25 29L25 28ZM0 0L0 7L7 7L7 0ZM1 1L1 6L6 6L6 1ZM2 2L2 5L5 5L5 2ZM22 0L22 7L29 7L29 0ZM23 1L23 6L28 6L28 1ZM24 2L24 5L27 5L27 2ZM0 22L0 29L7 29L7 22ZM1 23L1 28L6 28L6 23ZM2 24L2 27L5 27L5 24Z" fill="#000000"/></g></g></svg>
