<?xml version="1.0" encoding="UTF-8"?>
<svg xmlns="http://www.w3.org/2000/svg" version="1.1" width="200" height="200" viewBox="0 0 200 200"><rect x="0" y="0" width="200" height="200" fill="#ffffff"/><g transform="scale(6.897)"><g transform="translate(0,0)"><path fill-rule="evenodd" d="M10 0L10 2L9 2L9 1L8 1L8 2L9 2L9 3L10 3L10 4L9 4L9 5L8 5L8 8L4 8L4 9L5 9L5 10L4 10L4 11L5 11L5 12L4 12L4 13L2 13L2 11L1 11L1 13L0 13L0 15L1 15L1 14L2 14L2 15L3 15L3 14L4 14L4 15L7 15L7 16L4 16L4 17L5 17L5 19L4 19L4 18L3 18L3 17L2 17L2 16L1 16L1 17L0 17L0 18L2 18L2 19L4 19L4 20L3 20L3 21L4 21L4 20L5 20L5 19L7 19L7 18L10 18L10 17L11 17L11 16L9 16L9 15L11 15L11 14L9 14L9 15L8 15L8 8L9 8L9 5L11 5L11 6L10 6L10 8L11 8L11 9L12 9L12 11L11 11L11 12L9 12L9 13L12 13L12 14L13 14L13 15L12 15L12 18L11 18L11 20L10 20L10 19L8 19L8 20L6 20L6 21L8 21L8 25L9 25L9 29L10 29L10 27L11 27L11 29L16 29L16 28L15 28L15 27L14 27L14 26L16 26L16 27L17 27L17 28L18 28L18 27L17 27L17 26L16 26L16 25L14 25L14 24L15 24L15 21L16 21L16 24L17 24L17 25L18 25L18 26L19 26L19 29L22 29L22 28L25 28L25 29L28 29L28 28L29 28L29 26L28 26L28 25L29 25L29 24L28 24L28 23L29 23L29 21L28 21L28 23L27 23L27 21L26 21L26 19L27 19L27 20L29 20L29 17L26 17L26 15L27 15L27 16L28 16L28 15L29 15L29 14L28 14L28 13L29 13L29 10L28 10L28 8L27 8L27 9L24 9L24 8L22 8L22 9L20 9L20 7L21 7L21 6L20 6L20 5L18 5L18 7L17 7L17 6L16 6L16 5L17 5L17 4L20 4L20 3L21 3L21 1L20 1L20 0L18 0L18 1L17 1L17 0L14 0L14 2L13 2L13 0L12 0L12 1L11 1L11 0ZM15 1L15 3L14 3L14 4L13 4L13 3L12 3L12 2L10 2L10 3L11 3L11 4L13 4L13 5L12 5L12 6L11 6L11 8L12 8L12 9L13 9L13 8L12 8L12 6L13 6L13 7L14 7L14 6L13 6L13 5L14 5L14 4L15 4L15 3L16 3L16 4L17 4L17 2L16 2L16 1ZM19 1L19 2L18 2L18 3L19 3L19 2L20 2L20 1ZM15 6L15 8L16 8L16 6ZM19 6L19 7L20 7L20 6ZM17 8L17 9L18 9L18 10L19 10L19 11L17 11L17 10L15 10L15 9L14 9L14 11L13 11L13 12L12 12L12 13L13 13L13 14L14 14L14 13L15 13L15 12L17 12L17 13L16 13L16 16L15 16L15 15L13 15L13 16L14 16L14 17L13 17L13 20L11 20L11 21L10 21L10 20L8 20L8 21L10 21L10 22L9 22L9 24L10 24L10 25L12 25L12 26L11 26L11 27L12 27L12 28L13 28L13 22L14 22L14 21L15 21L15 20L16 20L16 19L15 19L15 20L14 20L14 18L15 18L15 17L16 17L16 16L17 16L17 17L18 17L18 18L17 18L17 20L18 20L18 21L17 21L17 22L18 22L18 21L19 21L19 23L17 23L17 24L19 24L19 23L20 23L20 20L18 20L18 18L19 18L19 17L20 17L20 19L21 19L21 18L22 18L22 20L24 20L24 19L23 19L23 17L24 17L24 18L25 18L25 19L26 19L26 17L24 17L24 16L23 16L23 14L22 14L22 13L25 13L25 15L26 15L26 13L25 13L25 11L26 11L26 12L27 12L27 13L28 13L28 10L24 10L24 9L22 9L22 10L21 10L21 11L20 11L20 10L19 10L19 9L18 9L18 8ZM0 9L0 10L1 10L1 9ZM2 9L2 10L3 10L3 9ZM6 9L6 10L5 10L5 11L6 11L6 12L7 12L7 11L6 11L6 10L7 10L7 9ZM22 10L22 11L23 11L23 12L24 12L24 11L23 11L23 10ZM13 12L13 13L14 13L14 12ZM19 12L19 13L17 13L17 14L18 14L18 15L17 15L17 16L18 16L18 15L19 15L19 14L20 14L20 15L21 15L21 16L20 16L20 17L23 17L23 16L22 16L22 15L21 15L21 14L20 14L20 12ZM21 12L21 13L22 13L22 12ZM4 13L4 14L5 14L5 13ZM6 13L6 14L7 14L7 13ZM27 14L27 15L28 15L28 14ZM7 16L7 17L6 17L6 18L7 18L7 17L9 17L9 16ZM0 20L0 21L2 21L2 20ZM21 21L21 24L24 24L24 21ZM10 22L10 24L11 24L11 23L12 23L12 22ZM22 22L22 23L23 23L23 22ZM26 23L26 24L27 24L27 25L26 25L26 27L25 27L25 25L22 25L22 27L25 27L25 28L27 28L27 25L28 25L28 24L27 24L27 23ZM20 27L20 28L21 28L21 27ZM0 0L0 7L7 7L7 0ZM1 1L1 6L6 6L6 1ZM2 2L2 5L5 5L5 2ZM22 0L22 7L29 7L29 0ZM23 1L23 6L28 6L28 1ZM24 2L24 5L27 5L27 2ZM0 22L0 29L7 29L7 22ZM1 23L1 28L6 28L6 23ZM2 24L2 27L5 27L5 24Z" fill="#000000"/></g></g></svg>
