<?xml version="1.0" encoding="UTF-8"?>
<svg xmlns="http://www.w3.org/2000/svg" version="1.1" width="200" height="200" viewBox="0 0 200 200"><rect x="0" y="0" width="200" height="200" fill="#ffffff"/><g transform="scale(6.897)"><g transform="translate(0,0)"><path fill-rule="evenodd" d="M14 0L14 2L13 2L13 4L12 4L12 3L11 3L11 4L9 4L9 1L8 1L8 7L9 7L9 5L10 5L10 9L9 9L9 8L5 8L5 9L4 9L4 10L3 10L3 8L2 8L2 10L3 10L3 11L2 11L2 12L1 12L1 10L0 10L0 12L1 12L1 13L0 13L0 14L1 14L1 15L0 15L0 17L3 17L3 20L0 20L0 21L3 21L3 20L5 20L5 18L4 18L4 17L7 17L7 16L5 16L5 15L4 15L4 14L5 14L5 11L7 11L7 12L6 12L6 13L7 13L7 12L8 12L8 9L9 9L9 12L10 12L10 11L11 11L11 12L12 12L12 13L8 13L8 14L6 14L6 15L11 15L11 14L12 14L12 16L11 16L11 17L10 17L10 16L8 16L8 17L10 17L10 19L12 19L12 20L13 20L13 19L12 19L12 18L14 18L14 17L12 17L12 16L13 16L13 15L14 15L14 16L15 16L15 19L14 19L14 22L13 22L13 21L12 21L12 22L11 22L11 20L10 20L10 21L9 21L9 19L8 19L8 18L6 18L6 19L8 19L8 20L6 20L6 21L8 21L8 24L9 24L9 25L10 25L10 26L8 26L8 27L11 27L11 28L12 28L12 27L14 27L14 29L15 29L15 27L14 27L14 25L12 25L12 27L11 27L11 25L10 25L10 24L11 24L11 23L12 23L12 24L14 24L14 23L16 23L16 24L19 24L19 25L20 25L20 27L19 27L19 28L18 28L18 27L17 27L17 26L18 26L18 25L16 25L16 28L18 28L18 29L21 29L21 28L20 28L20 27L21 27L21 26L22 26L22 27L23 27L23 26L22 26L22 25L25 25L25 26L24 26L24 27L29 27L29 26L28 26L28 25L27 25L27 26L26 26L26 25L25 25L25 24L26 24L26 23L27 23L27 24L29 24L29 20L27 20L27 21L25 21L25 20L26 20L26 19L29 19L29 14L28 14L28 13L29 13L29 12L27 12L27 14L26 14L26 15L25 15L25 14L24 14L24 15L25 15L25 16L23 16L23 15L22 15L22 16L23 16L23 18L22 18L22 19L23 19L23 20L21 20L21 12L18 12L18 11L17 11L17 10L16 10L16 9L14 9L14 7L15 7L15 8L17 8L17 9L18 9L18 10L19 10L19 11L20 11L20 10L19 10L19 9L20 9L20 8L21 8L21 11L22 11L22 8L21 8L21 5L20 5L20 4L21 4L21 3L19 3L19 2L20 2L20 0L18 0L18 1L16 1L16 0ZM10 1L10 2L11 2L11 1ZM18 1L18 2L19 2L19 1ZM14 2L14 4L13 4L13 7L12 7L12 4L11 4L11 8L13 8L13 7L14 7L14 5L15 5L15 4L16 4L16 5L17 5L17 8L18 8L18 6L19 6L19 7L20 7L20 5L17 5L17 4L16 4L16 3L17 3L17 2L16 2L16 3L15 3L15 2ZM15 6L15 7L16 7L16 6ZM23 8L23 9L28 9L28 8ZM5 9L5 10L4 10L4 11L3 11L3 12L2 12L2 16L4 16L4 15L3 15L3 14L4 14L4 11L5 11L5 10L7 10L7 9ZM11 9L11 10L14 10L14 9ZM15 10L15 11L14 11L14 12L15 12L15 13L13 13L13 14L15 14L15 15L16 15L16 16L17 16L17 15L18 15L18 17L17 17L17 18L16 18L16 19L17 19L17 22L20 22L20 20L19 20L19 19L20 19L20 17L19 17L19 16L20 16L20 15L19 15L19 14L20 14L20 13L19 13L19 14L16 14L16 13L18 13L18 12L16 12L16 10ZM24 10L24 11L25 11L25 13L26 13L26 11L25 11L25 10ZM28 10L28 11L29 11L29 10ZM12 11L12 12L13 12L13 11ZM22 12L22 14L23 14L23 12ZM27 14L27 15L26 15L26 16L28 16L28 14ZM11 17L11 18L12 18L12 17ZM25 17L25 18L24 18L24 19L25 19L25 18L26 18L26 17ZM0 18L0 19L2 19L2 18ZM17 18L17 19L19 19L19 18ZM18 20L18 21L19 21L19 20ZM21 21L21 24L24 24L24 21ZM12 22L12 23L13 23L13 22ZM22 22L22 23L23 23L23 22ZM25 22L25 23L26 23L26 22ZM27 22L27 23L28 23L28 22ZM9 23L9 24L10 24L10 23ZM9 28L9 29L10 29L10 28ZM22 28L22 29L27 29L27 28ZM28 28L28 29L29 29L29 28ZM0 0L0 7L7 7L7 0ZM1 1L1 6L6 6L6 1ZM2 2L2 5L5 5L5 2ZM22 0L22 7L29 7L29 0ZM23 1L23 6L28 6L28 1ZM24 2L24 5L27 5L27 2ZM0 22L0 29L7 29L7 22ZM1 23L1 28L6 28L6 23ZM2 24L2 27L5 27L5 24Z" fill="#000000"/></g></g></svg>
