<?xml version="1.0" encoding="UTF-8"?>
<svg xmlns="http://www.w3.org/2000/svg" version="1.1" width="200" height="200" viewBox="0 0 200 200"><rect x="0" y="0" width="200" height="200" fill="#ffffff"/><g transform="scale(6.897)"><g transform="translate(0,0)"><path fill-rule="evenodd" d="M8 0L8 3L9 3L9 5L8 5L8 10L5 10L5 8L2 8L2 9L0 9L0 12L1 12L1 10L2 10L2 9L3 9L3 10L5 10L5 11L3 11L3 13L4 13L4 14L1 14L1 13L0 13L0 21L1 21L1 17L2 17L2 18L3 18L3 17L4 17L4 19L3 19L3 20L2 20L2 21L3 21L3 20L4 20L4 21L5 21L5 20L6 20L6 21L7 21L7 20L8 20L8 22L9 22L9 21L11 21L11 22L10 22L10 23L11 23L11 22L12 22L12 21L13 21L13 20L14 20L14 21L15 21L15 24L14 24L14 22L13 22L13 24L14 24L14 25L12 25L12 24L11 24L11 25L10 25L10 27L9 27L9 24L8 24L8 27L9 27L9 29L13 29L13 28L12 28L12 27L11 27L11 26L13 26L13 27L14 27L14 28L15 28L15 27L16 27L16 28L18 28L18 27L19 27L19 28L20 28L20 26L18 26L18 25L17 25L17 26L15 26L15 25L16 25L16 23L17 23L17 24L18 24L18 23L19 23L19 24L20 24L20 25L25 25L25 26L23 26L23 27L24 27L24 28L25 28L25 26L26 26L26 23L27 23L27 25L29 25L29 24L28 24L28 23L27 23L27 22L25 22L25 20L26 20L26 21L28 21L28 22L29 22L29 21L28 21L28 18L29 18L29 17L28 17L28 18L25 18L25 20L24 20L24 19L20 19L20 18L22 18L22 17L23 17L23 18L24 18L24 17L25 17L25 16L26 16L26 14L29 14L29 13L28 13L28 12L27 12L27 13L26 13L26 11L25 11L25 10L27 10L27 9L29 9L29 8L26 8L26 9L24 9L24 8L21 8L21 5L20 5L20 4L21 4L21 2L20 2L20 1L21 1L21 0L20 0L20 1L19 1L19 0L18 0L18 3L19 3L19 4L18 4L18 7L19 7L19 5L20 5L20 9L24 9L24 10L23 10L23 11L21 11L21 10L20 10L20 11L21 11L21 12L23 12L23 11L24 11L24 13L23 13L23 14L22 14L22 13L18 13L18 14L17 14L17 12L18 12L18 10L17 10L17 12L16 12L16 11L15 11L15 10L14 10L14 11L13 11L13 12L12 12L12 10L13 10L13 8L12 8L12 7L13 7L13 5L14 5L14 9L17 9L17 8L15 8L15 5L17 5L17 4L15 4L15 2L16 2L16 1L15 1L15 0L13 0L13 2L12 2L12 0ZM11 2L11 3L12 3L12 2ZM13 2L13 4L14 4L14 5L15 5L15 4L14 4L14 2ZM11 4L11 7L12 7L12 4ZM9 5L9 8L10 8L10 5ZM16 6L16 7L17 7L17 6ZM6 8L6 9L7 9L7 8ZM11 8L11 9L10 9L10 10L9 10L9 11L10 11L10 13L9 13L9 12L7 12L7 11L6 11L6 12L7 12L7 13L5 13L5 12L4 12L4 13L5 13L5 14L7 14L7 13L8 13L8 14L10 14L10 15L6 15L6 16L7 16L7 17L6 17L6 18L7 18L7 19L6 19L6 20L7 20L7 19L10 19L10 20L11 20L11 21L12 21L12 20L13 20L13 19L16 19L16 18L17 18L17 19L18 19L18 22L17 22L17 23L18 23L18 22L20 22L20 21L19 21L19 19L18 19L18 17L16 17L16 18L15 18L15 15L16 15L16 14L14 14L14 12L13 12L13 13L11 13L11 11L10 11L10 10L12 10L12 8ZM18 8L18 9L19 9L19 8ZM10 13L10 14L11 14L11 13ZM25 13L25 14L26 14L26 13ZM12 14L12 15L14 15L14 14ZM18 14L18 15L17 15L17 16L18 16L18 15L19 15L19 16L20 16L20 17L19 17L19 18L20 18L20 17L22 17L22 16L21 16L21 15L22 15L22 14ZM23 14L23 15L24 15L24 16L23 16L23 17L24 17L24 16L25 16L25 15L24 15L24 14ZM2 15L2 17L3 17L3 15ZM27 15L27 16L29 16L29 15ZM10 16L10 17L11 17L11 18L10 18L10 19L13 19L13 18L14 18L14 16ZM7 17L7 18L9 18L9 17ZM12 17L12 18L13 18L13 17ZM4 19L4 20L5 20L5 19ZM26 19L26 20L27 20L27 19ZM15 20L15 21L16 21L16 20ZM21 21L21 24L24 24L24 21ZM22 22L22 23L23 23L23 22ZM17 26L17 27L18 27L18 26ZM27 26L27 28L28 28L28 26ZM10 27L10 28L11 28L11 27ZM21 27L21 28L22 28L22 27ZM0 0L0 7L7 7L7 0ZM1 1L1 6L6 6L6 1ZM2 2L2 5L5 5L5 2ZM22 0L22 7L29 7L29 0ZM23 1L23 6L28 6L28 1ZM24 2L24 5L27 5L27 2ZM0 22L0 29L7 29L7 22ZM1 23L1 28L6 28L6 23ZM2 24L2 27L5 27L5 24Z" fill="#000000"/></g></g></svg>
