<?xml version="1.0" encoding="UTF-8"?>
<svg xmlns="http://www.w3.org/2000/svg" version="1.1" width="200" height="200" viewBox="0 0 200 200"><rect x="0" y="0" width="200" height="200" fill="#ffffff"/><g transform="scale(6.897)"><g transform="translate(0,0)"><path fill-rule="evenodd" d="M9 0L9 1L13 1L13 0ZM14 0L14 2L15 2L15 3L17 3L17 4L15 4L15 6L14 6L14 7L13 7L13 6L12 6L12 4L13 4L13 5L14 5L14 4L13 4L13 3L12 3L12 4L11 4L11 2L10 2L10 7L9 7L9 6L8 6L8 7L9 7L9 9L8 9L8 8L6 8L6 9L7 9L7 10L4 10L4 9L5 9L5 8L3 8L3 10L4 10L4 11L2 11L2 12L3 12L3 13L2 13L2 14L1 14L1 15L0 15L0 16L2 16L2 15L4 15L4 16L3 16L3 19L2 19L2 17L0 17L0 21L3 21L3 20L6 20L6 21L8 21L8 23L9 23L9 24L8 24L8 26L9 26L9 29L12 29L12 27L13 27L13 29L14 29L14 28L15 28L15 29L17 29L17 26L18 26L18 28L20 28L20 29L21 29L21 27L22 27L22 28L23 28L23 29L24 29L24 27L26 27L26 29L27 29L27 27L28 27L28 28L29 28L29 26L28 26L28 24L29 24L29 23L27 23L27 22L28 22L28 21L29 21L29 20L27 20L27 19L29 19L29 18L28 18L28 15L29 15L29 11L27 11L27 12L26 12L26 11L25 11L25 9L26 9L26 10L27 10L27 8L25 8L25 9L24 9L24 11L23 11L23 9L21 9L21 5L20 5L20 4L21 4L21 1L20 1L20 0L18 0L18 3L17 3L17 0ZM15 1L15 2L16 2L16 1ZM19 1L19 3L18 3L18 4L19 4L19 3L20 3L20 1ZM8 2L8 4L9 4L9 2ZM19 5L19 7L18 7L18 6L17 6L17 8L16 8L16 9L15 9L15 7L16 7L16 6L15 6L15 7L14 7L14 10L13 10L13 9L12 9L12 8L13 8L13 7L12 7L12 6L11 6L11 7L10 7L10 9L9 9L9 11L8 11L8 12L9 12L9 11L11 11L11 12L12 12L12 13L10 13L10 14L9 14L9 15L8 15L8 13L5 13L5 14L7 14L7 15L5 15L5 16L4 16L4 17L5 17L5 16L7 16L7 15L8 15L8 16L10 16L10 17L11 17L11 16L12 16L12 15L10 15L10 14L12 14L12 13L13 13L13 14L14 14L14 15L13 15L13 17L12 17L12 18L10 18L10 19L9 19L9 17L8 17L8 18L7 18L7 17L6 17L6 18L5 18L5 19L6 19L6 20L8 20L8 19L9 19L9 20L10 20L10 21L9 21L9 23L13 23L13 26L14 26L14 27L15 27L15 23L13 23L13 22L12 22L12 20L13 20L13 21L14 21L14 22L15 22L15 21L16 21L16 22L17 22L17 24L16 24L16 26L17 26L17 25L18 25L18 26L19 26L19 23L18 23L18 22L20 22L20 20L23 20L23 19L20 19L20 17L19 17L19 18L18 18L18 15L19 15L19 12L21 12L21 13L20 13L20 16L21 16L21 18L22 18L22 16L24 16L24 15L25 15L25 14L24 14L24 15L23 15L23 14L21 14L21 13L22 13L22 12L23 12L23 13L25 13L25 12L23 12L23 11L21 11L21 10L20 10L20 5ZM11 7L11 8L12 8L12 7ZM18 8L18 9L19 9L19 8ZM0 9L0 11L1 11L1 10L2 10L2 9ZM16 9L16 10L15 10L15 11L16 11L16 12L17 12L17 11L18 11L18 12L19 12L19 11L18 11L18 10L17 10L17 9ZM16 10L16 11L17 11L17 10ZM5 11L5 12L7 12L7 11ZM12 11L12 12L14 12L14 13L15 13L15 14L18 14L18 13L15 13L15 12L14 12L14 11ZM0 12L0 13L1 13L1 12ZM26 13L26 15L28 15L28 13ZM14 15L14 16L15 16L15 18L13 18L13 20L16 20L16 21L17 21L17 22L18 22L18 18L17 18L17 17L16 17L16 15ZM25 16L25 17L23 17L23 18L24 18L24 20L25 20L25 22L27 22L27 20L26 20L26 19L27 19L27 17L26 17L26 16ZM6 18L6 19L7 19L7 18ZM15 18L15 19L17 19L17 18ZM11 19L11 20L12 20L12 19ZM10 21L10 22L11 22L11 21ZM21 21L21 24L24 24L24 21ZM22 22L22 23L23 23L23 22ZM26 23L26 24L27 24L27 23ZM11 24L11 25L9 25L9 26L10 26L10 28L11 28L11 27L12 27L12 26L11 26L11 25L12 25L12 24ZM22 25L22 26L25 26L25 25ZM26 26L26 27L27 27L27 26ZM0 0L0 7L7 7L7 0ZM1 1L1 6L6 6L6 1ZM2 2L2 5L5 5L5 2ZM22 0L22 7L29 7L29 0ZM23 1L23 6L28 6L28 1ZM24 2L24 5L27 5L27 2ZM0 22L0 29L7 29L7 22ZM1 23L1 28L6 28L6 23ZM2 24L2 27L5 27L5 24Z" fill="#000000"/></g></g></svg>
