<?xml version="1.0" encoding="UTF-8"?>
<svg xmlns="http://www.w3.org/2000/svg" version="1.1" width="200" height="200" viewBox="0 0 200 200"><rect x="0" y="0" width="200" height="200" fill="#ffffff"/><g transform="scale(6.897)"><g transform="translate(0,0)"><path fill-rule="evenodd" d="M8 0L8 2L9 2L9 0ZM10 0L10 2L11 2L11 0ZM13 0L13 2L12 2L12 3L13 3L13 2L14 2L14 0ZM15 0L15 1L16 1L16 0ZM18 0L18 1L17 1L17 2L15 2L15 3L18 3L18 5L19 5L19 6L18 6L18 7L17 7L17 5L16 5L16 4L14 4L14 5L15 5L15 6L14 6L14 8L13 8L13 4L11 4L11 3L8 3L8 7L9 7L9 9L10 9L10 10L8 10L8 9L7 9L7 8L6 8L6 9L7 9L7 10L5 10L5 9L4 9L4 8L3 8L3 10L1 10L1 12L2 12L2 13L0 13L0 17L1 17L1 18L0 18L0 19L1 19L1 18L2 18L2 20L3 20L3 19L4 19L4 16L3 16L3 14L2 14L2 13L3 13L3 12L2 12L2 11L3 11L3 10L4 10L4 13L5 13L5 11L7 11L7 12L6 12L6 13L7 13L7 12L8 12L8 14L6 14L6 15L5 15L5 16L6 16L6 17L7 17L7 18L6 18L6 19L5 19L5 20L4 20L4 21L7 21L7 20L9 20L9 21L8 21L8 22L9 22L9 25L8 25L8 26L9 26L9 27L10 27L10 28L11 28L11 27L12 27L12 29L14 29L14 28L15 28L15 29L16 29L16 27L17 27L17 26L18 26L18 27L20 27L20 25L22 25L22 26L21 26L21 28L17 28L17 29L22 29L22 26L23 26L23 28L24 28L24 29L28 29L28 27L29 27L29 25L28 25L28 27L27 27L27 26L26 26L26 24L29 24L29 23L28 23L28 22L29 22L29 14L28 14L28 13L29 13L29 12L28 12L28 13L27 13L27 11L28 11L28 9L29 9L29 8L27 8L27 11L26 11L26 8L23 8L23 10L21 10L21 11L20 11L20 9L21 9L21 8L20 8L20 9L19 9L19 6L20 6L20 7L21 7L21 6L20 6L20 5L21 5L21 2L20 2L20 1L19 1L19 0ZM19 3L19 5L20 5L20 3ZM9 4L9 7L10 7L10 9L11 9L11 10L10 10L10 11L11 11L11 10L12 10L12 12L11 12L11 13L12 13L12 15L11 15L11 14L10 14L10 12L9 12L9 14L8 14L8 15L9 15L9 16L10 16L10 17L12 17L12 18L10 18L10 19L12 19L12 21L10 21L10 26L11 26L11 25L12 25L12 21L13 21L13 23L14 23L14 24L15 24L15 23L16 23L16 22L18 22L18 23L19 23L19 25L20 25L20 23L19 23L19 22L18 22L18 20L19 20L19 19L18 19L18 17L20 17L20 18L21 18L21 17L20 17L20 16L21 16L21 14L22 14L22 15L23 15L23 14L24 14L24 16L23 16L23 17L22 17L22 18L23 18L23 19L22 19L22 20L24 20L24 19L25 19L25 18L26 18L26 20L25 20L25 21L26 21L26 22L25 22L25 24L26 24L26 23L27 23L27 21L28 21L28 20L27 20L27 19L28 19L28 17L27 17L27 16L28 16L28 15L25 15L25 14L27 14L27 13L26 13L26 11L21 11L21 12L16 12L16 13L14 13L14 14L15 14L15 15L14 15L14 16L13 16L13 10L14 10L14 11L15 11L15 10L16 10L16 11L19 11L19 10L18 10L18 9L17 9L17 8L16 8L16 9L15 9L15 10L14 10L14 9L13 9L13 8L12 8L12 6L11 6L11 7L10 7L10 5L11 5L11 4ZM15 6L15 7L16 7L16 6ZM11 8L11 9L12 9L12 8ZM16 9L16 10L17 10L17 9ZM24 9L24 10L25 10L25 9ZM7 10L7 11L8 11L8 10ZM22 12L22 13L23 13L23 12ZM24 12L24 13L25 13L25 12ZM16 13L16 15L15 15L15 16L14 16L14 17L13 17L13 16L12 16L12 17L13 17L13 18L12 18L12 19L13 19L13 20L15 20L15 21L14 21L14 22L16 22L16 20L17 20L17 18L16 18L16 16L17 16L17 15L18 15L18 16L20 16L20 15L19 15L19 13ZM20 13L20 14L21 14L21 13ZM9 14L9 15L10 15L10 14ZM1 15L1 16L2 16L2 17L3 17L3 16L2 16L2 15ZM6 15L6 16L7 16L7 17L8 17L8 18L7 18L7 19L6 19L6 20L7 20L7 19L8 19L8 18L9 18L9 17L8 17L8 16L7 16L7 15ZM24 16L24 17L23 17L23 18L25 18L25 16ZM14 17L14 18L15 18L15 17ZM26 17L26 18L27 18L27 17ZM0 20L0 21L1 21L1 20ZM26 20L26 21L27 21L27 20ZM21 21L21 24L24 24L24 21ZM22 22L22 23L23 23L23 22ZM13 25L13 26L14 26L14 25ZM16 25L16 26L15 26L15 27L16 27L16 26L17 26L17 25ZM23 25L23 26L24 26L24 25ZM24 27L24 28L25 28L25 27ZM26 27L26 28L27 28L27 27ZM0 0L0 7L7 7L7 0ZM1 1L1 6L6 6L6 1ZM2 2L2 5L5 5L5 2ZM22 0L22 7L29 7L29 0ZM23 1L23 6L28 6L28 1ZM24 2L24 5L27 5L27 2ZM0 22L0 29L7 29L7 22ZM1 23L1 28L6 28L6 23ZM2 24L2 27L5 27L5 24Z" fill="#000000"/></g></g></svg>
