<?xml version="1.0" encoding="UTF-8"?>
<svg xmlns="http://www.w3.org/2000/svg" version="1.1" width="200" height="200" viewBox="0 0 200 200"><rect x="0" y="0" width="200" height="200" fill="#ffffff"/><g transform="scale(6.897)"><g transform="translate(0,0)"><path fill-rule="evenodd" d="M8 0L8 1L9 1L9 3L8 3L8 4L10 4L10 7L9 7L9 6L8 6L8 7L9 7L9 8L8 8L8 10L6 10L6 9L7 9L7 8L4 8L4 9L3 9L3 8L2 8L2 9L1 9L1 11L0 11L0 13L1 13L1 11L4 11L4 9L5 9L5 12L4 12L4 13L3 13L3 12L2 12L2 14L1 14L1 15L2 15L2 16L0 16L0 17L1 17L1 18L0 18L0 19L1 19L1 20L0 20L0 21L1 21L1 20L2 20L2 21L4 21L4 19L3 19L3 18L4 18L4 17L3 17L3 18L2 18L2 16L4 16L4 15L2 15L2 14L5 14L5 12L6 12L6 13L7 13L7 12L6 12L6 11L8 11L8 12L9 12L9 13L8 13L8 14L6 14L6 15L5 15L5 16L6 16L6 17L7 17L7 18L5 18L5 19L8 19L8 17L7 17L7 16L9 16L9 18L10 18L10 19L11 19L11 20L10 20L10 21L11 21L11 20L12 20L12 21L13 21L13 22L12 22L12 23L10 23L10 22L9 22L9 20L8 20L8 22L9 22L9 23L8 23L8 25L9 25L9 24L14 24L14 23L16 23L16 24L17 24L17 25L16 25L16 28L15 28L15 25L14 25L14 26L13 26L13 25L12 25L12 26L11 26L11 25L10 25L10 26L11 26L11 27L10 27L10 28L9 28L9 29L11 29L11 28L13 28L13 29L17 29L17 28L18 28L18 29L19 29L19 26L21 26L21 28L20 28L20 29L25 29L25 28L26 28L26 29L29 29L29 28L28 28L28 27L29 27L29 26L28 26L28 27L27 27L27 26L26 26L26 25L25 25L25 22L27 22L27 23L28 23L28 25L29 25L29 20L28 20L28 19L29 19L29 17L28 17L28 16L26 16L26 17L28 17L28 19L27 19L27 18L26 18L26 19L24 19L24 20L23 20L23 19L22 19L22 20L21 20L21 18L22 18L22 16L24 16L24 18L25 18L25 16L24 16L24 15L22 15L22 14L23 14L23 12L24 12L24 13L25 13L25 14L26 14L26 15L29 15L29 12L28 12L28 13L27 13L27 12L24 12L24 11L25 11L25 10L24 10L24 9L23 9L23 10L22 10L22 11L21 11L21 15L20 15L20 17L19 17L19 15L18 15L18 17L17 17L17 15L16 15L16 14L15 14L15 12L13 12L13 10L12 10L12 12L13 12L13 13L11 13L11 14L13 14L13 15L12 15L12 16L13 16L13 17L14 17L14 20L13 20L13 18L12 18L12 17L10 17L10 16L11 16L11 15L8 15L8 14L9 14L9 13L10 13L10 12L11 12L11 11L8 11L8 10L9 10L9 8L10 8L10 10L11 10L11 9L14 9L14 11L16 11L16 13L17 13L17 14L19 14L19 12L20 12L20 11L19 11L19 10L20 10L20 7L21 7L21 6L20 6L20 4L19 4L19 3L20 3L20 2L19 2L19 0L18 0L18 2L19 2L19 3L16 3L16 4L13 4L13 3L14 3L14 2L13 2L13 3L11 3L11 4L10 4L10 1L12 1L12 0L10 0L10 1L9 1L9 0ZM13 0L13 1L15 1L15 2L16 2L16 1L17 1L17 0L16 0L16 1L15 1L15 0ZM11 4L11 7L10 7L10 8L14 8L14 9L15 9L15 7L16 7L16 6L17 6L17 7L18 7L18 6L19 6L19 7L20 7L20 6L19 6L19 4L16 4L16 6L15 6L15 5L14 5L14 6L13 6L13 7L12 7L12 5L13 5L13 4ZM17 5L17 6L18 6L18 5ZM14 6L14 7L15 7L15 6ZM16 8L16 10L17 10L17 12L18 12L18 10L17 10L17 9L18 9L18 8ZM21 8L21 9L22 9L22 8ZM25 8L25 9L26 9L26 8ZM28 8L28 9L29 9L29 8ZM2 9L2 10L3 10L3 9ZM26 10L26 11L29 11L29 10ZM13 13L13 14L14 14L14 13ZM6 15L6 16L7 16L7 15ZM13 15L13 16L14 16L14 17L15 17L15 21L14 21L14 22L15 22L15 21L16 21L16 23L17 23L17 21L18 21L18 24L19 24L19 25L18 25L18 26L19 26L19 25L20 25L20 23L19 23L19 22L20 22L20 21L18 21L18 20L20 20L20 19L19 19L19 17L18 17L18 18L16 18L16 16L14 16L14 15ZM1 18L1 19L2 19L2 20L3 20L3 19L2 19L2 18ZM11 18L11 19L12 19L12 18ZM17 19L17 20L16 20L16 21L17 21L17 20L18 20L18 19ZM26 19L26 21L28 21L28 20L27 20L27 19ZM5 20L5 21L7 21L7 20ZM21 21L21 24L24 24L24 21ZM22 22L22 23L23 23L23 22ZM21 25L21 26L22 26L22 28L24 28L24 27L23 27L23 26L25 26L25 27L26 27L26 28L27 28L27 27L26 27L26 26L25 26L25 25ZM8 26L8 27L9 27L9 26ZM12 26L12 27L13 27L13 28L14 28L14 27L13 27L13 26ZM0 0L0 7L7 7L7 0ZM1 1L1 6L6 6L6 1ZM2 2L2 5L5 5L5 2ZM22 0L22 7L29 7L29 0ZM23 1L23 6L28 6L28 1ZM24 2L24 5L27 5L27 2ZM0 22L0 29L7 29L7 22ZM1 23L1 28L6 28L6 23ZM2 24L2 27L5 27L5 24Z" fill="#000000"/></g></g></svg>
