<?xml version="1.0" encoding="UTF-8"?>
<svg xmlns="http://www.w3.org/2000/svg" version="1.1" width="200" height="200" viewBox="0 0 200 200"><rect x="0" y="0" width="200" height="200" fill="#ffffff"/><g transform="scale(6.897)"><g transform="translate(0,0)"><path fill-rule="evenodd" d="M16 0L16 1L17 1L17 0ZM18 0L18 3L17 3L17 2L15 2L15 1L11 1L11 2L10 2L10 1L9 1L9 2L10 2L10 3L9 3L9 4L8 4L8 5L9 5L9 6L8 6L8 8L6 8L6 9L4 9L4 8L2 8L2 9L1 9L1 10L0 10L0 11L1 11L1 10L2 10L2 12L0 12L0 14L2 14L2 12L5 12L5 13L3 13L3 14L4 14L4 15L3 15L3 16L5 16L5 17L7 17L7 16L5 16L5 15L8 15L8 17L9 17L9 18L6 18L6 19L2 19L2 20L1 20L1 21L2 21L2 20L3 20L3 21L4 21L4 20L5 20L5 21L8 21L8 23L10 23L10 24L9 24L9 25L8 25L8 27L12 27L12 28L13 28L13 29L14 29L14 27L15 27L15 26L16 26L16 25L17 25L17 26L18 26L18 27L16 27L16 28L15 28L15 29L16 29L16 28L18 28L18 29L19 29L19 28L20 28L20 29L22 29L22 27L21 27L21 28L20 28L20 26L18 26L18 25L17 25L17 24L19 24L19 23L20 23L20 25L21 25L21 26L22 26L22 25L23 25L23 28L24 28L24 25L25 25L25 27L27 27L27 28L26 28L26 29L28 29L28 27L29 27L29 26L28 26L28 24L27 24L27 25L25 25L25 21L26 21L26 22L27 22L27 23L28 23L28 22L27 22L27 19L28 19L28 17L27 17L27 16L26 16L26 15L29 15L29 13L28 13L28 12L29 12L29 11L28 11L28 9L25 9L25 8L24 8L24 10L27 10L27 11L28 11L28 12L25 12L25 13L28 13L28 14L23 14L23 15L22 15L22 13L21 13L21 14L20 14L20 13L19 13L19 15L18 15L18 12L20 12L20 11L18 11L18 9L17 9L17 10L15 10L15 12L16 12L16 13L15 13L15 15L16 15L16 16L18 16L18 17L19 17L19 18L18 18L18 19L19 19L19 20L18 20L18 23L16 23L16 21L17 21L17 19L16 19L16 18L17 18L17 17L16 17L16 18L14 18L14 19L13 19L13 20L12 20L12 19L11 19L11 17L13 17L13 16L11 16L11 15L10 15L10 17L9 17L9 15L8 15L8 14L5 14L5 13L7 13L7 12L5 12L5 10L6 10L6 11L8 11L8 12L11 12L11 13L9 13L9 14L12 14L12 13L13 13L13 14L14 14L14 10L13 10L13 12L11 12L11 9L9 9L9 8L10 8L10 7L11 7L11 8L12 8L12 7L13 7L13 8L14 8L14 7L15 7L15 8L19 8L19 9L23 9L23 8L20 8L20 7L21 7L21 0L20 0L20 1L19 1L19 0ZM11 2L11 3L10 3L10 4L9 4L9 5L10 5L10 6L9 6L9 7L10 7L10 6L11 6L11 7L12 7L12 6L13 6L13 7L14 7L14 6L15 6L15 7L16 7L16 6L17 6L17 7L18 7L18 6L19 6L19 7L20 7L20 6L19 6L19 3L20 3L20 2L19 2L19 3L18 3L18 5L16 5L16 3L15 3L15 2L13 2L13 4L11 4L11 3L12 3L12 2ZM13 4L13 6L14 6L14 4ZM15 5L15 6L16 6L16 5ZM2 9L2 10L3 10L3 11L4 11L4 10L3 10L3 9ZM6 9L6 10L8 10L8 11L10 11L10 10L9 10L9 9ZM22 10L22 11L23 11L23 10ZM23 12L23 13L24 13L24 12ZM16 13L16 15L17 15L17 13ZM1 15L1 16L2 16L2 15ZM19 15L19 16L21 16L21 15ZM23 15L23 16L24 16L24 17L25 17L25 18L23 18L23 19L21 19L21 18L22 18L22 17L21 17L21 18L20 18L20 20L19 20L19 21L20 21L20 20L24 20L24 19L25 19L25 18L27 18L27 17L25 17L25 16L24 16L24 15ZM14 16L14 17L15 17L15 16ZM1 17L1 18L0 18L0 19L1 19L1 18L2 18L2 17ZM6 19L6 20L7 20L7 19ZM8 19L8 20L9 20L9 22L10 22L10 23L15 23L15 24L16 24L16 23L15 23L15 21L16 21L16 20L15 20L15 19L14 19L14 20L13 20L13 22L12 22L12 21L11 21L11 20L9 20L9 19ZM28 20L28 21L29 21L29 20ZM21 21L21 24L24 24L24 21ZM22 22L22 23L23 23L23 22ZM10 24L10 25L9 25L9 26L10 26L10 25L11 25L11 26L12 26L12 27L14 27L14 26L15 26L15 25L14 25L14 24L13 24L13 25L11 25L11 24ZM27 26L27 27L28 27L28 26ZM18 27L18 28L19 28L19 27ZM9 28L9 29L11 29L11 28ZM0 0L0 7L7 7L7 0ZM1 1L1 6L6 6L6 1ZM2 2L2 5L5 5L5 2ZM22 0L22 7L29 7L29 0ZM23 1L23 6L28 6L28 1ZM24 2L24 5L27 5L27 2ZM0 22L0 29L7 29L7 22ZM1 23L1 28L6 28L6 23ZM2 24L2 27L5 27L5 24Z" fill="#000000"/></g></g></svg>
