<?xml version="1.0" encoding="UTF-8"?>
<svg xmlns="http://www.w3.org/2000/svg" version="1.1" width="200" height="200" viewBox="0 0 200 200"><rect x="0" y="0" width="200" height="200" fill="#ffffff"/><g transform="scale(6.897)"><g transform="translate(0,0)"><path fill-rule="evenodd" d="M8 0L8 3L9 3L9 2L10 2L10 3L12 3L12 4L13 4L13 6L12 6L12 7L13 7L13 8L12 8L12 10L11 10L11 4L9 4L9 5L8 5L8 10L6 10L6 9L7 9L7 8L6 8L6 9L5 9L5 8L2 8L2 9L0 9L0 10L3 10L3 11L1 11L1 12L2 12L2 15L3 15L3 16L2 16L2 17L1 17L1 15L0 15L0 21L1 21L1 18L2 18L2 20L3 20L3 21L4 21L4 20L3 20L3 18L2 18L2 17L3 17L3 16L4 16L4 15L3 15L3 12L6 12L6 13L5 13L5 15L8 15L8 16L10 16L10 17L11 17L11 19L10 19L10 18L9 18L9 17L8 17L8 19L9 19L9 20L8 20L8 22L9 22L9 21L11 21L11 19L12 19L12 21L14 21L14 22L15 22L15 21L14 21L14 20L13 20L13 18L14 18L14 17L16 17L16 13L17 13L17 14L18 14L18 13L19 13L19 14L22 14L22 15L21 15L21 16L22 16L22 17L20 17L20 18L19 18L19 17L18 17L18 15L17 15L17 17L18 17L18 19L19 19L19 20L18 20L18 21L19 21L19 24L18 24L18 23L17 23L17 24L16 24L16 25L13 25L13 24L15 24L15 23L13 23L13 22L10 22L10 23L9 23L9 24L8 24L8 27L9 27L9 28L10 28L10 29L13 29L13 28L14 28L14 29L15 29L15 28L16 28L16 29L18 29L18 28L20 28L20 27L21 27L21 28L22 28L22 27L23 27L23 29L25 29L25 28L24 28L24 27L25 27L25 25L26 25L26 21L28 21L28 22L29 22L29 21L28 21L28 18L29 18L29 15L27 15L27 14L28 14L28 13L29 13L29 12L27 12L27 14L26 14L26 13L24 13L24 12L26 12L26 11L27 11L27 10L29 10L29 8L26 8L26 9L24 9L24 8L20 8L20 7L21 7L21 2L20 2L20 1L21 1L21 0L20 0L20 1L19 1L19 0L17 0L17 1L16 1L16 0L15 0L15 4L16 4L16 5L17 5L17 4L18 4L18 3L17 3L17 1L18 1L18 2L19 2L19 5L18 5L18 7L19 7L19 8L18 8L18 9L17 9L17 10L18 10L18 11L17 11L17 12L16 12L16 13L15 13L15 11L13 11L13 8L15 8L15 9L14 9L14 10L15 10L15 9L16 9L16 8L15 8L15 5L14 5L14 2L13 2L13 1L14 1L14 0L12 0L12 2L10 2L10 0ZM16 3L16 4L17 4L17 3ZM9 5L9 7L10 7L10 5ZM19 5L19 7L20 7L20 5ZM13 6L13 7L14 7L14 6ZM16 6L16 7L17 7L17 6ZM19 8L19 9L18 9L18 10L19 10L19 11L18 11L18 12L17 12L17 13L18 13L18 12L19 12L19 13L20 13L20 12L21 12L21 13L22 13L22 14L23 14L23 17L22 17L22 18L23 18L23 19L22 19L22 20L23 20L23 19L24 19L24 20L25 20L25 21L26 21L26 20L27 20L27 19L26 19L26 20L25 20L25 17L24 17L24 16L25 16L25 14L23 14L23 12L24 12L24 11L23 11L23 10L24 10L24 9L20 9L20 8ZM4 9L4 10L5 10L5 9ZM9 9L9 11L8 11L8 12L7 12L7 11L6 11L6 12L7 12L7 13L6 13L6 14L8 14L8 15L10 15L10 16L11 16L11 17L13 17L13 15L14 15L14 16L15 16L15 15L14 15L14 14L15 14L15 13L13 13L13 11L12 11L12 13L11 13L11 14L10 14L10 12L9 12L9 11L10 11L10 9ZM26 9L26 10L27 10L27 9ZM20 10L20 11L22 11L22 10ZM8 12L8 14L9 14L9 12ZM0 13L0 14L1 14L1 13ZM12 13L12 14L11 14L11 16L12 16L12 15L13 15L13 13ZM19 15L19 16L20 16L20 15ZM26 15L26 16L27 16L27 15ZM5 16L5 17L7 17L7 16ZM23 17L23 18L24 18L24 17ZM26 17L26 18L28 18L28 17ZM6 18L6 19L5 19L5 21L7 21L7 20L6 20L6 19L7 19L7 18ZM15 18L15 20L16 20L16 22L17 22L17 18ZM20 18L20 19L21 19L21 18ZM21 21L21 24L24 24L24 21ZM22 22L22 23L23 23L23 22ZM11 23L11 24L9 24L9 25L11 25L11 26L10 26L10 28L11 28L11 26L12 26L12 27L13 27L13 25L11 25L11 24L12 24L12 23ZM17 24L17 26L18 26L18 27L20 27L20 24L19 24L19 25L18 25L18 24ZM27 24L27 25L29 25L29 24ZM21 25L21 26L24 26L24 25ZM14 26L14 28L15 28L15 27L16 27L16 26ZM26 26L26 27L27 27L27 28L28 28L28 26ZM0 0L0 7L7 7L7 0ZM1 1L1 6L6 6L6 1ZM2 2L2 5L5 5L5 2ZM22 0L22 7L29 7L29 0ZM23 1L23 6L28 6L28 1ZM24 2L24 5L27 5L27 2ZM0 22L0 29L7 29L7 22ZM1 23L1 28L6 28L6 23ZM2 24L2 27L5 27L5 24Z" fill="#000000"/></g></g></svg>
