<?xml version="1.0" encoding="UTF-8"?>
<svg xmlns="http://www.w3.org/2000/svg" version="1.1" width="200" height="200" viewBox="0 0 200 200"><rect x="0" y="0" width="200" height="200" fill="#ffffff"/><g transform="scale(6.897)"><g transform="translate(0,0)"><path fill-rule="evenodd" d="M8 0L8 1L11 1L11 2L10 2L10 3L11 3L11 2L12 2L12 3L13 3L13 2L12 2L12 1L13 1L13 0ZM16 0L16 1L14 1L14 7L15 7L15 6L16 6L16 8L15 8L15 10L14 10L14 9L13 9L13 8L12 8L12 9L11 9L11 10L10 10L10 11L8 11L8 9L9 9L9 8L11 8L11 6L12 6L12 7L13 7L13 5L12 5L12 4L11 4L11 6L10 6L10 4L9 4L9 3L8 3L8 4L9 4L9 6L8 6L8 7L9 7L9 8L8 8L8 9L7 9L7 8L4 8L4 9L3 9L3 8L2 8L2 11L4 11L4 10L5 10L5 12L2 12L2 13L1 13L1 12L0 12L0 15L1 15L1 14L2 14L2 16L0 16L0 17L1 17L1 18L0 18L0 19L1 19L1 20L0 20L0 21L1 21L1 20L2 20L2 21L5 21L5 20L4 20L4 19L7 19L7 18L6 18L6 17L7 17L7 16L6 16L6 15L7 15L7 14L8 14L8 16L9 16L9 17L8 17L8 18L9 18L9 17L10 17L10 15L14 15L14 16L11 16L11 18L12 18L12 17L14 17L14 18L13 18L13 19L12 19L12 20L10 20L10 19L8 19L8 20L6 20L6 21L8 21L8 22L9 22L9 23L8 23L8 25L9 25L9 26L8 26L8 27L9 27L9 29L12 29L12 28L11 28L11 27L12 27L12 26L11 26L11 27L10 27L10 25L13 25L13 27L15 27L15 29L16 29L16 26L18 26L18 27L17 27L17 29L18 29L18 28L19 28L19 27L20 27L20 26L21 26L21 25L24 25L24 27L25 27L25 28L22 28L22 27L23 27L23 26L22 26L22 27L21 27L21 28L20 28L20 29L25 29L25 28L26 28L26 29L29 29L29 28L28 28L28 27L29 27L29 26L28 26L28 27L27 27L27 28L26 28L26 27L25 27L25 23L27 23L27 24L28 24L28 23L29 23L29 22L27 22L27 21L26 21L26 22L25 22L25 19L27 19L27 20L28 20L28 21L29 21L29 20L28 20L28 19L29 19L29 16L27 16L27 17L25 17L25 16L24 16L24 18L25 18L25 19L24 19L24 20L21 20L21 18L22 18L22 16L23 16L23 15L22 15L22 14L23 14L23 13L25 13L25 14L26 14L26 13L28 13L28 14L27 14L27 15L29 15L29 8L28 8L28 9L27 9L27 10L24 10L24 9L23 9L23 10L21 10L21 11L22 11L22 12L20 12L20 11L19 11L19 10L20 10L20 8L19 8L19 6L20 6L20 7L21 7L21 3L20 3L20 2L19 2L19 3L17 3L17 2L18 2L18 1L19 1L19 0L18 0L18 1L17 1L17 0ZM16 3L16 5L18 5L18 6L17 6L17 7L18 7L18 6L19 6L19 5L18 5L18 4L17 4L17 3ZM19 3L19 4L20 4L20 3ZM9 6L9 7L10 7L10 6ZM17 8L17 9L18 9L18 8ZM21 8L21 9L22 9L22 8ZM25 8L25 9L26 9L26 8ZM5 9L5 10L7 10L7 9ZM12 9L12 10L13 10L13 11L11 11L11 12L10 12L10 13L14 13L14 15L15 15L15 16L14 16L14 17L15 17L15 18L14 18L14 19L15 19L15 20L16 20L16 21L17 21L17 20L20 20L20 19L17 19L17 15L18 15L18 14L19 14L19 15L20 15L20 14L19 14L19 13L20 13L20 12L19 12L19 11L18 11L18 12L19 12L19 13L16 13L16 14L15 14L15 13L14 13L14 10L13 10L13 9ZM0 10L0 11L1 11L1 10ZM16 10L16 12L17 12L17 10ZM6 11L6 12L7 12L7 11ZM24 11L24 12L25 12L25 13L26 13L26 12L27 12L27 11ZM8 12L8 13L9 13L9 12ZM2 13L2 14L4 14L4 15L3 15L3 16L4 16L4 18L5 18L5 17L6 17L6 16L5 16L5 15L6 15L6 14L7 14L7 13ZM15 16L15 17L16 17L16 16ZM19 16L19 17L20 17L20 16ZM2 17L2 18L1 18L1 19L3 19L3 17ZM27 17L27 19L28 19L28 17ZM15 18L15 19L16 19L16 18ZM8 20L8 21L9 21L9 22L10 22L10 24L12 24L12 23L11 23L11 21L10 21L10 20ZM12 20L12 21L13 21L13 25L14 25L14 26L15 26L15 25L14 25L14 23L15 23L15 24L17 24L17 25L18 25L18 26L19 26L19 25L20 25L20 24L19 24L19 22L20 22L20 21L18 21L18 24L17 24L17 22L16 22L16 23L15 23L15 21L14 21L14 20ZM21 21L21 24L24 24L24 21ZM22 22L22 23L23 23L23 22ZM18 24L18 25L19 25L19 24ZM26 25L26 26L27 26L27 25ZM13 28L13 29L14 29L14 28ZM0 0L0 7L7 7L7 0ZM1 1L1 6L6 6L6 1ZM2 2L2 5L5 5L5 2ZM22 0L22 7L29 7L29 0ZM23 1L23 6L28 6L28 1ZM24 2L24 5L27 5L27 2ZM0 22L0 29L7 29L7 22ZM1 23L1 28L6 28L6 23ZM2 24L2 27L5 27L5 24Z" fill="#000000"/></g></g></svg>
