<?xml version="1.0" encoding="UTF-8"?>
<svg xmlns="http://www.w3.org/2000/svg" version="1.1" width="200" height="200" viewBox="0 0 200 200"><rect x="0" y="0" width="200" height="200" fill="#ffffff"/><g transform="scale(6.897)"><g transform="translate(0,0)"><path fill-rule="evenodd" d="M8 0L8 3L9 3L9 5L8 5L8 9L7 9L7 8L6 8L6 9L7 9L7 10L5 10L5 11L8 11L8 13L7 13L7 12L4 12L4 11L3 11L3 12L2 12L2 10L3 10L3 9L5 9L5 8L2 8L2 10L1 10L1 9L0 9L0 11L1 11L1 12L2 12L2 14L4 14L4 13L5 13L5 14L6 14L6 15L4 15L4 16L6 16L6 17L7 17L7 18L6 18L6 19L5 19L5 20L4 20L4 21L5 21L5 20L6 20L6 21L7 21L7 20L6 20L6 19L7 19L7 18L8 18L8 19L9 19L9 18L11 18L11 17L9 17L9 16L14 16L14 15L18 15L18 16L19 16L19 14L20 14L20 16L22 16L22 17L20 17L20 18L18 18L18 17L17 17L17 16L16 16L16 17L15 17L15 18L14 18L14 17L13 17L13 19L15 19L15 18L17 18L17 19L16 19L16 20L15 20L15 21L14 21L14 22L13 22L13 23L14 23L14 25L12 25L12 23L11 23L11 22L12 22L12 21L13 21L13 20L11 20L11 19L10 19L10 20L9 20L9 21L8 21L8 22L9 22L9 21L10 21L10 23L9 23L9 24L8 24L8 27L9 27L9 29L10 29L10 28L11 28L11 29L12 29L12 28L14 28L14 25L15 25L15 23L17 23L17 22L18 22L18 19L19 19L19 21L20 21L20 23L19 23L19 24L20 24L20 25L19 25L19 28L20 28L20 25L24 25L24 26L22 26L22 27L21 27L21 28L22 28L22 27L23 27L23 28L24 28L24 29L25 29L25 26L26 26L26 27L27 27L27 28L28 28L28 26L26 26L26 22L27 22L27 24L28 24L28 25L29 25L29 23L28 23L28 22L29 22L29 21L28 21L28 18L29 18L29 17L28 17L28 15L27 15L27 17L28 17L28 18L27 18L27 20L26 20L26 18L25 18L25 20L24 20L24 19L22 19L22 17L23 17L23 18L24 18L24 17L25 17L25 16L26 16L26 14L25 14L25 13L26 13L26 11L27 11L27 13L28 13L28 14L29 14L29 13L28 13L28 12L29 12L29 11L27 11L27 10L28 10L28 9L29 9L29 8L26 8L26 9L27 9L27 10L26 10L26 11L25 11L25 9L24 9L24 8L20 8L20 7L21 7L21 6L20 6L20 7L19 7L19 4L20 4L20 5L21 5L21 4L20 4L20 3L21 3L21 2L20 2L20 1L21 1L21 0L20 0L20 1L19 1L19 0L17 0L17 1L15 1L15 0L14 0L14 2L15 2L15 3L13 3L13 2L11 2L11 0L10 0L10 1L9 1L9 0ZM17 1L17 3L15 3L15 4L17 4L17 9L16 9L16 6L15 6L15 5L14 5L14 4L13 4L13 5L14 5L14 6L13 6L13 7L14 7L14 6L15 6L15 9L16 9L16 10L13 10L13 11L17 11L17 12L18 12L18 13L16 13L16 14L18 14L18 13L21 13L21 15L22 15L22 13L24 13L24 11L23 11L23 12L22 12L22 11L20 11L20 10L24 10L24 9L20 9L20 8L19 8L19 7L18 7L18 4L19 4L19 2L18 2L18 1ZM9 2L9 3L11 3L11 7L10 7L10 5L9 5L9 8L12 8L12 9L11 9L11 10L9 10L9 9L8 9L8 10L9 10L9 11L10 11L10 12L9 12L9 13L10 13L10 15L11 15L11 14L13 14L13 13L15 13L15 12L11 12L11 10L12 10L12 9L14 9L14 8L12 8L12 3L11 3L11 2ZM17 3L17 4L18 4L18 3ZM18 8L18 9L17 9L17 11L18 11L18 9L19 9L19 8ZM3 12L3 13L4 13L4 12ZM10 12L10 13L11 13L11 12ZM0 13L0 14L1 14L1 13ZM6 13L6 14L7 14L7 13ZM23 14L23 17L24 17L24 16L25 16L25 14ZM0 15L0 16L1 16L1 17L0 17L0 21L1 21L1 17L2 17L2 21L3 21L3 19L4 19L4 18L5 18L5 17L3 17L3 15ZM6 15L6 16L7 16L7 17L8 17L8 18L9 18L9 17L8 17L8 16L9 16L9 15ZM20 18L20 19L21 19L21 20L22 20L22 19L21 19L21 18ZM10 20L10 21L11 21L11 20ZM25 20L25 22L26 22L26 20ZM16 21L16 22L17 22L17 21ZM21 21L21 24L24 24L24 21ZM27 21L27 22L28 22L28 21ZM14 22L14 23L15 23L15 22ZM22 22L22 23L23 23L23 22ZM9 24L9 27L10 27L10 24ZM11 25L11 26L12 26L12 25ZM15 26L15 28L16 28L16 29L18 29L18 28L16 28L16 26ZM11 27L11 28L12 28L12 27ZM0 0L0 7L7 7L7 0ZM1 1L1 6L6 6L6 1ZM2 2L2 5L5 5L5 2ZM22 0L22 7L29 7L29 0ZM23 1L23 6L28 6L28 1ZM24 2L24 5L27 5L27 2ZM0 22L0 29L7 29L7 22ZM1 23L1 28L6 28L6 23ZM2 24L2 27L5 27L5 24Z" fill="#000000"/></g></g></svg>
