<?xml version="1.0" encoding="UTF-8"?>
<svg xmlns="http://www.w3.org/2000/svg" version="1.1" width="200" height="200" viewBox="0 0 200 200"><rect x="0" y="0" width="200" height="200" fill="#ffffff"/><g transform="scale(6.897)"><g transform="translate(0,0)"><path fill-rule="evenodd" d="M9 0L9 3L11 3L11 2L10 2L10 0ZM11 0L11 1L12 1L12 3L15 3L15 4L14 4L14 7L13 7L13 6L12 6L12 5L10 5L10 4L8 4L8 5L9 5L9 6L8 6L8 8L6 8L6 9L5 9L5 10L4 10L4 11L5 11L5 13L4 13L4 14L3 14L3 15L1 15L1 14L2 14L2 11L3 11L3 9L4 9L4 8L2 8L2 9L0 9L0 10L1 10L1 11L0 11L0 13L1 13L1 14L0 14L0 17L2 17L2 20L1 20L1 21L2 21L2 20L5 20L5 21L8 21L8 23L9 23L9 22L10 22L10 26L9 26L9 25L8 25L8 27L10 27L10 28L11 28L11 27L12 27L12 26L13 26L13 27L14 27L14 28L12 28L12 29L19 29L19 28L20 28L20 29L22 29L22 25L23 25L23 29L25 29L25 28L24 28L24 26L25 26L25 27L27 27L27 28L26 28L26 29L28 29L28 27L29 27L29 26L28 26L28 24L27 24L27 25L25 25L25 20L26 20L26 23L28 23L28 22L29 22L29 20L28 20L28 21L27 21L27 19L28 19L28 17L29 17L29 16L28 16L28 15L29 15L29 14L24 14L24 12L23 12L23 14L24 14L24 15L22 15L22 14L21 14L21 16L20 16L20 17L19 17L19 16L18 16L18 15L20 15L20 13L19 13L19 12L20 12L20 11L19 11L19 12L18 12L18 13L17 13L17 11L18 11L18 10L17 10L17 9L16 9L16 7L17 7L17 8L19 8L19 9L23 9L23 8L21 8L21 5L20 5L20 3L21 3L21 0L20 0L20 1L19 1L19 0L18 0L18 3L19 3L19 6L18 6L18 7L17 7L17 5L18 5L18 4L17 4L17 5L16 5L16 3L15 3L15 2L16 2L16 1L17 1L17 0L16 0L16 1L15 1L15 0L13 0L13 1L12 1L12 0ZM13 1L13 2L15 2L15 1ZM19 2L19 3L20 3L20 2ZM9 6L9 8L10 8L10 6ZM11 6L11 7L12 7L12 6ZM15 6L15 7L16 7L16 6ZM19 6L19 7L20 7L20 6ZM14 8L14 10L13 10L13 9L11 9L11 10L7 10L7 9L6 9L6 10L7 10L7 11L6 11L6 12L7 12L7 13L5 13L5 14L4 14L4 15L3 15L3 16L2 16L2 17L3 17L3 16L4 16L4 17L5 17L5 20L7 20L7 19L6 19L6 18L8 18L8 19L9 19L9 18L11 18L11 17L13 17L13 20L12 20L12 19L11 19L11 20L9 20L9 21L10 21L10 22L11 22L11 23L12 23L12 21L13 21L13 24L14 24L14 25L13 25L13 26L16 26L16 27L15 27L15 28L17 28L17 27L18 27L18 25L19 25L19 26L21 26L21 25L20 25L20 23L19 23L19 22L18 22L18 23L19 23L19 24L16 24L16 23L15 23L15 22L17 22L17 21L15 21L15 22L14 22L14 21L13 21L13 20L15 20L15 19L16 19L16 20L18 20L18 19L19 19L19 17L18 17L18 19L16 19L16 18L17 18L17 17L14 17L14 15L15 15L15 16L16 16L16 15L18 15L18 14L17 14L17 13L16 13L16 12L15 12L15 11L17 11L17 10L16 10L16 9L15 9L15 8ZM24 8L24 10L25 10L25 11L26 11L26 10L25 10L25 8ZM27 9L27 12L26 12L26 13L28 13L28 9ZM7 11L7 12L8 12L8 13L7 13L7 14L5 14L5 15L4 15L4 16L5 16L5 17L9 17L9 16L10 16L10 15L11 15L11 14L12 14L12 12L13 12L13 15L12 15L12 16L13 16L13 15L14 15L14 14L16 14L16 13L15 13L15 12L13 12L13 11L12 11L12 12L11 12L11 13L10 13L10 14L9 14L9 12L8 12L8 11ZM7 14L7 15L5 15L5 16L7 16L7 15L8 15L8 16L9 16L9 14ZM24 15L24 17L26 17L26 18L23 18L23 19L22 19L22 20L24 20L24 19L26 19L26 18L27 18L27 15L26 15L26 16L25 16L25 15ZM21 17L21 18L20 18L20 20L19 20L19 21L20 21L20 20L21 20L21 18L22 18L22 17ZM0 18L0 19L1 19L1 18ZM3 18L3 19L4 19L4 18ZM14 18L14 19L15 19L15 18ZM21 21L21 24L24 24L24 21ZM22 22L22 23L23 23L23 22ZM14 23L14 24L15 24L15 25L16 25L16 24L15 24L15 23ZM11 25L11 26L10 26L10 27L11 27L11 26L12 26L12 25ZM27 26L27 27L28 27L28 26ZM20 27L20 28L21 28L21 27ZM0 0L0 7L7 7L7 0ZM1 1L1 6L6 6L6 1ZM2 2L2 5L5 5L5 2ZM22 0L22 7L29 7L29 0ZM23 1L23 6L28 6L28 1ZM24 2L24 5L27 5L27 2ZM0 22L0 29L7 29L7 22ZM1 23L1 28L6 28L6 23ZM2 24L2 27L5 27L5 24Z" fill="#000000"/></g></g></svg>
