<?xml version="1.0" encoding="UTF-8"?>
<svg xmlns="http://www.w3.org/2000/svg" version="1.1" width="200" height="200" viewBox="0 0 200 200"><rect x="0" y="0" width="200" height="200" fill="#ffffff"/><g transform="scale(6.897)"><g transform="translate(0,0)"><path fill-rule="evenodd" d="M12 0L12 2L11 2L11 1L9 1L9 2L11 2L11 3L9 3L9 4L8 4L8 5L10 5L10 7L9 7L9 6L8 6L8 8L6 8L6 9L8 9L8 11L7 11L7 10L6 10L6 11L7 11L7 12L5 12L5 11L4 11L4 10L5 10L5 9L4 9L4 8L2 8L2 9L1 9L1 11L0 11L0 16L2 16L2 15L4 15L4 14L2 14L2 12L3 12L3 13L4 13L4 12L5 12L5 15L8 15L8 17L7 17L7 16L5 16L5 17L4 17L4 19L3 19L3 18L2 18L2 17L1 17L1 18L0 18L0 19L1 19L1 18L2 18L2 20L1 20L1 21L3 21L3 20L4 20L4 19L5 19L5 21L7 21L7 20L6 20L6 19L8 19L8 20L9 20L9 19L10 19L10 20L11 20L11 21L8 21L8 23L9 23L9 22L12 22L12 23L11 23L11 24L10 24L10 25L8 25L8 27L9 27L9 29L11 29L11 28L12 28L12 27L14 27L14 28L13 28L13 29L14 29L14 28L15 28L15 29L16 29L16 28L15 28L15 27L14 27L14 26L15 26L15 24L17 24L17 23L18 23L18 24L19 24L19 22L20 22L20 25L18 25L18 26L20 26L20 25L21 25L21 28L20 28L20 27L17 27L17 25L16 25L16 27L17 27L17 29L18 29L18 28L20 28L20 29L22 29L22 25L24 25L24 26L25 26L25 27L24 27L24 28L23 28L23 29L25 29L25 27L27 27L27 28L26 28L26 29L28 29L28 27L29 27L29 26L28 26L28 25L27 25L27 24L26 24L26 25L25 25L25 23L26 23L26 22L27 22L27 23L28 23L28 24L29 24L29 23L28 23L28 22L29 22L29 20L28 20L28 21L27 21L27 19L28 19L28 17L29 17L29 13L28 13L28 12L27 12L27 15L28 15L28 16L26 16L26 15L25 15L25 14L24 14L24 16L23 16L23 15L22 15L22 14L23 14L23 13L21 13L21 12L20 12L20 11L19 11L19 10L18 10L18 9L17 9L17 10L16 10L16 9L14 9L14 8L13 8L13 6L12 6L12 4L11 4L11 3L12 3L12 2L13 2L13 0ZM14 0L14 3L13 3L13 4L14 4L14 5L15 5L15 2L16 2L16 4L17 4L17 5L16 5L16 7L17 7L17 8L19 8L19 9L23 9L23 8L21 8L21 6L20 6L20 5L19 5L19 4L20 4L20 3L21 3L21 0L20 0L20 1L19 1L19 0L18 0L18 1L17 1L17 0ZM18 1L18 2L17 2L17 4L19 4L19 3L20 3L20 2L19 2L19 1ZM18 2L18 3L19 3L19 2ZM17 5L17 7L18 7L18 6L19 6L19 8L20 8L20 6L19 6L19 5ZM11 6L11 7L10 7L10 8L11 8L11 9L9 9L9 12L8 12L8 13L6 13L6 14L8 14L8 15L10 15L10 17L9 17L9 18L8 18L8 19L9 19L9 18L11 18L11 17L13 17L13 18L12 18L12 19L11 19L11 20L12 20L12 21L13 21L13 22L14 22L14 23L12 23L12 24L13 24L13 25L12 25L12 26L11 26L11 25L10 25L10 26L9 26L9 27L12 27L12 26L13 26L13 25L14 25L14 23L15 23L15 22L16 22L16 21L17 21L17 22L19 22L19 21L20 21L20 20L24 20L24 19L25 19L25 18L22 18L22 17L21 17L21 18L20 18L20 20L19 20L19 19L17 19L17 20L16 20L16 18L14 18L14 17L13 17L13 16L15 16L15 17L18 17L18 18L19 18L19 17L20 17L20 16L21 16L21 15L19 15L19 14L21 14L21 13L20 13L20 12L19 12L19 13L18 13L18 12L17 12L17 11L16 11L16 12L17 12L17 13L18 13L18 15L17 15L17 14L16 14L16 13L12 13L12 15L10 15L10 14L9 14L9 13L10 13L10 12L14 12L14 11L15 11L15 10L14 10L14 9L13 9L13 10L14 10L14 11L11 11L11 9L12 9L12 8L11 8L11 7L12 7L12 6ZM14 6L14 7L15 7L15 6ZM24 8L24 10L26 10L26 9L25 9L25 8ZM3 9L3 10L2 10L2 11L1 11L1 12L2 12L2 11L3 11L3 12L4 12L4 11L3 11L3 10L4 10L4 9ZM27 9L27 11L28 11L28 9ZM22 10L22 12L23 12L23 10ZM24 12L24 13L25 13L25 12ZM1 14L1 15L2 15L2 14ZM13 14L13 15L12 15L12 16L13 16L13 15L14 15L14 14ZM18 15L18 17L19 17L19 15ZM24 16L24 17L26 17L26 19L27 19L27 17L26 17L26 16ZM5 17L5 19L6 19L6 18L7 18L7 17ZM13 18L13 19L12 19L12 20L14 20L14 21L15 21L15 19L14 19L14 18ZM21 18L21 19L22 19L22 18ZM17 20L17 21L18 21L18 20ZM25 20L25 22L26 22L26 20ZM21 21L21 24L24 24L24 21ZM22 22L22 23L23 23L23 22ZM27 26L27 27L28 27L28 26ZM0 0L0 7L7 7L7 0ZM1 1L1 6L6 6L6 1ZM2 2L2 5L5 5L5 2ZM22 0L22 7L29 7L29 0ZM23 1L23 6L28 6L28 1ZM24 2L24 5L27 5L27 2ZM0 22L0 29L7 29L7 22ZM1 23L1 28L6 28L6 23ZM2 24L2 27L5 27L5 24Z" fill="#000000"/></g></g></svg>
