<?xml version="1.0" encoding="UTF-8"?>
<svg xmlns="http://www.w3.org/2000/svg" version="1.1" width="200" height="200" viewBox="0 0 200 200"><rect x="0" y="0" width="200" height="200" fill="#ffffff"/><g transform="scale(6.897)"><g transform="translate(0,0)"><path fill-rule="evenodd" d="M9 0L9 1L8 1L8 7L9 7L9 2L10 2L10 1L11 1L11 2L12 2L12 3L10 3L10 7L11 7L11 5L13 5L13 6L12 6L12 8L13 8L13 6L14 6L14 8L16 8L16 9L17 9L17 10L18 10L18 11L16 11L16 12L15 12L15 11L14 11L14 10L15 10L15 9L13 9L13 11L12 11L12 9L11 9L11 8L10 8L10 9L9 9L9 8L5 8L5 9L7 9L7 10L6 10L6 11L5 11L5 10L2 10L2 11L0 11L0 12L2 12L2 13L1 13L1 14L2 14L2 15L1 15L1 18L0 18L0 19L3 19L3 20L0 20L0 21L3 21L3 20L4 20L4 21L5 21L5 20L6 20L6 21L7 21L7 20L8 20L8 24L10 24L10 21L11 21L11 22L12 22L12 21L13 21L13 20L12 20L12 19L11 19L11 18L13 18L13 19L15 19L15 20L14 20L14 22L13 22L13 24L11 24L11 27L12 27L12 25L13 25L13 26L15 26L15 27L16 27L16 26L15 26L15 23L17 23L17 24L18 24L18 25L17 25L17 27L18 27L18 28L17 28L17 29L18 29L18 28L19 28L19 29L21 29L21 28L20 28L20 27L21 27L21 26L22 26L22 25L26 25L26 22L25 22L25 20L26 20L26 21L27 21L27 22L28 22L28 23L27 23L27 26L24 26L24 27L23 27L23 28L22 28L22 29L23 29L23 28L24 28L24 27L29 27L29 26L28 26L28 23L29 23L29 20L26 20L26 19L29 19L29 9L28 9L28 8L23 8L23 9L25 9L25 10L24 10L24 11L25 11L25 13L26 13L26 15L27 15L27 16L28 16L28 17L26 17L26 19L24 19L24 18L25 18L25 16L24 16L24 15L25 15L25 14L23 14L23 12L22 12L22 8L21 8L21 3L19 3L19 4L20 4L20 7L19 7L19 6L18 6L18 8L16 8L16 7L17 7L17 5L18 5L18 1L19 1L19 2L20 2L20 0L17 0L17 1L16 1L16 2L15 2L15 4L17 4L17 5L14 5L14 2L12 2L12 1L11 1L11 0ZM16 2L16 3L17 3L17 2ZM15 6L15 7L16 7L16 6ZM2 8L2 9L3 9L3 8ZM20 8L20 9L19 9L19 10L20 10L20 11L19 11L19 12L18 12L18 13L17 13L17 17L16 17L16 16L15 16L15 15L16 15L16 13L15 13L15 15L14 15L14 14L12 14L12 13L14 13L14 11L13 11L13 12L12 12L12 11L11 11L11 13L9 13L9 14L8 14L8 15L6 15L6 14L7 14L7 13L5 13L5 11L4 11L4 12L3 12L3 11L2 11L2 12L3 12L3 13L2 13L2 14L3 14L3 15L2 15L2 17L5 17L5 16L7 16L7 17L6 17L6 18L5 18L5 19L4 19L4 18L3 18L3 19L4 19L4 20L5 20L5 19L6 19L6 20L7 20L7 19L9 19L9 21L10 21L10 20L11 20L11 21L12 21L12 20L11 20L11 19L10 19L10 18L11 18L11 17L13 17L13 18L16 18L16 20L15 20L15 22L14 22L14 23L15 23L15 22L17 22L17 23L18 23L18 24L19 24L19 21L20 21L20 20L19 20L19 19L20 19L20 17L19 17L19 16L18 16L18 15L19 15L19 12L20 12L20 15L21 15L21 18L22 18L22 19L23 19L23 16L22 16L22 15L23 15L23 14L22 14L22 12L21 12L21 8ZM10 9L10 10L11 10L11 9ZM26 9L26 10L25 10L25 11L26 11L26 13L27 13L27 15L28 15L28 13L27 13L27 9ZM7 10L7 11L6 11L6 12L7 12L7 11L8 11L8 12L9 12L9 11L8 11L8 10ZM4 13L4 15L5 15L5 13ZM9 14L9 15L8 15L8 16L10 16L10 17L11 17L11 16L12 16L12 14ZM13 15L13 16L14 16L14 15ZM8 17L8 18L9 18L9 17ZM17 17L17 20L18 20L18 21L17 21L17 22L18 22L18 21L19 21L19 20L18 20L18 17ZM6 18L6 19L7 19L7 18ZM21 21L21 24L24 24L24 21ZM22 22L22 23L23 23L23 22ZM13 24L13 25L14 25L14 24ZM9 25L9 26L8 26L8 27L9 27L9 28L10 28L10 29L12 29L12 28L10 28L10 27L9 27L9 26L10 26L10 25ZM18 25L18 26L19 26L19 27L20 27L20 25ZM13 27L13 28L14 28L14 29L15 29L15 28L14 28L14 27ZM25 28L25 29L27 29L27 28ZM28 28L28 29L29 29L29 28ZM0 0L0 7L7 7L7 0ZM1 1L1 6L6 6L6 1ZM2 2L2 5L5 5L5 2ZM22 0L22 7L29 7L29 0ZM23 1L23 6L28 6L28 1ZM24 2L24 5L27 5L27 2ZM0 22L0 29L7 29L7 22ZM1 23L1 28L6 28L6 23ZM2 24L2 27L5 27L5 24Z" fill="#000000"/></g></g></svg>
