<?xml version="1.0" encoding="UTF-8"?>
<svg xmlns="http://www.w3.org/2000/svg" version="1.1" width="200" height="200" viewBox="0 0 200 200"><rect x="0" y="0" width="200" height="200" fill="#ffffff"/><g transform="scale(6.897)"><g transform="translate(0,0)"><path fill-rule="evenodd" d="M8 0L8 3L10 3L10 4L11 4L11 2L10 2L10 1L12 1L12 2L13 2L13 3L12 3L12 5L11 5L11 6L10 6L10 5L8 5L8 9L9 9L9 12L5 12L5 11L7 11L7 10L4 10L4 9L5 9L5 8L2 8L2 9L0 9L0 10L1 10L1 12L0 12L0 16L1 16L1 14L2 14L2 13L4 13L4 12L5 12L5 13L7 13L7 14L5 14L5 16L4 16L4 18L2 18L2 19L3 19L3 21L4 21L4 20L5 20L5 21L8 21L8 22L9 22L9 23L10 23L10 24L8 24L8 27L11 27L11 26L12 26L12 24L11 24L11 21L12 21L12 22L13 22L13 23L14 23L14 24L13 24L13 25L14 25L14 26L15 26L15 28L14 28L14 27L12 27L12 29L13 29L13 28L14 28L14 29L18 29L18 27L19 27L19 28L20 28L20 26L21 26L21 25L23 25L23 26L22 26L22 27L21 27L21 28L22 28L22 27L25 27L25 26L24 26L24 25L25 25L25 24L26 24L26 25L27 25L27 24L26 24L26 21L28 21L28 18L29 18L29 16L27 16L27 17L26 17L26 18L27 18L27 20L24 20L24 19L23 19L23 18L24 18L24 17L25 17L25 16L26 16L26 15L25 15L25 16L24 16L24 17L23 17L23 14L22 14L22 13L21 13L21 12L20 12L20 15L21 15L21 16L22 16L22 17L20 17L20 18L18 18L18 17L19 17L19 13L11 13L11 15L12 15L12 16L11 16L11 17L10 17L10 16L9 16L9 15L10 15L10 11L11 11L11 12L13 12L13 11L14 11L14 12L16 12L16 11L17 11L17 12L18 12L18 11L19 11L19 10L17 10L17 8L16 8L16 7L17 7L17 4L16 4L16 3L15 3L15 2L14 2L14 1L16 1L16 2L19 2L19 4L18 4L18 7L19 7L19 4L20 4L20 7L21 7L21 4L20 4L20 3L21 3L21 2L20 2L20 1L21 1L21 0L20 0L20 1L19 1L19 0L18 0L18 1L16 1L16 0L14 0L14 1L13 1L13 0L10 0L10 1L9 1L9 0ZM13 3L13 5L12 5L12 6L11 6L11 7L10 7L10 6L9 6L9 9L10 9L10 10L11 10L11 11L13 11L13 10L14 10L14 11L16 11L16 10L15 10L15 7L16 7L16 6L15 6L15 5L16 5L16 4L15 4L15 3ZM13 5L13 6L12 6L12 7L13 7L13 6L14 6L14 7L15 7L15 6L14 6L14 5ZM6 8L6 9L7 9L7 8ZM11 8L11 10L13 10L13 8ZM18 8L18 9L24 9L24 10L23 10L23 11L22 11L22 10L20 10L20 11L22 11L22 12L23 12L23 13L24 13L24 14L25 14L25 13L27 13L27 12L25 12L25 9L24 9L24 8ZM26 8L26 9L29 9L29 8ZM2 10L2 11L4 11L4 10ZM26 10L26 11L27 11L27 10ZM23 11L23 12L24 12L24 13L25 13L25 12L24 12L24 11ZM8 13L8 14L7 14L7 15L6 15L6 16L5 16L5 18L4 18L4 19L5 19L5 18L7 18L7 19L6 19L6 20L7 20L7 19L8 19L8 18L7 18L7 17L8 17L8 16L7 16L7 15L9 15L9 13ZM28 13L28 14L29 14L29 13ZM12 14L12 15L13 15L13 16L12 16L12 18L13 18L13 19L12 19L12 20L13 20L13 22L14 22L14 23L15 23L15 24L14 24L14 25L16 25L16 26L19 26L19 25L20 25L20 24L19 24L19 25L18 25L18 24L16 24L16 23L20 23L20 22L19 22L19 20L18 20L18 22L17 22L17 21L14 21L14 20L13 20L13 19L14 19L14 17L13 17L13 16L14 16L14 15L16 15L16 14L14 14L14 15L13 15L13 14ZM17 14L17 16L15 16L15 18L17 18L17 16L18 16L18 14ZM21 14L21 15L22 15L22 14ZM2 15L2 17L3 17L3 15ZM6 16L6 17L7 17L7 16ZM0 17L0 21L1 21L1 17ZM9 17L9 18L10 18L10 19L9 19L9 20L8 20L8 21L9 21L9 22L10 22L10 21L11 21L11 18L10 18L10 17ZM22 17L22 18L23 18L23 17ZM27 17L27 18L28 18L28 17ZM20 18L20 19L21 19L21 20L22 20L22 19L21 19L21 18ZM16 19L16 20L17 20L17 19ZM9 20L9 21L10 21L10 20ZM21 21L21 24L24 24L24 21ZM15 22L15 23L16 23L16 22ZM22 22L22 23L23 23L23 22ZM10 24L10 25L9 25L9 26L10 26L10 25L11 25L11 24ZM26 26L26 27L27 27L27 28L28 28L28 26ZM9 28L9 29L10 29L10 28ZM24 28L24 29L25 29L25 28ZM0 0L0 7L7 7L7 0ZM1 1L1 6L6 6L6 1ZM2 2L2 5L5 5L5 2ZM22 0L22 7L29 7L29 0ZM23 1L23 6L28 6L28 1ZM24 2L24 5L27 5L27 2ZM0 22L0 29L7 29L7 22ZM1 23L1 28L6 28L6 23ZM2 24L2 27L5 27L5 24Z" fill="#000000"/></g></g></svg>
