<?xml version="1.0" encoding="UTF-8"?>
<svg xmlns="http://www.w3.org/2000/svg" version="1.1" width="200" height="200" viewBox="0 0 200 200"><rect x="0" y="0" width="200" height="200" fill="#ffffff"/><g transform="scale(6.897)"><g transform="translate(0,0)"><path fill-rule="evenodd" d="M8 0L8 3L9 3L9 1L10 1L10 2L11 2L11 3L12 3L12 0L11 0L11 1L10 1L10 0ZM13 0L13 1L14 1L14 4L11 4L11 5L12 5L12 7L11 7L11 6L10 6L10 4L9 4L9 5L8 5L8 10L6 10L6 9L7 9L7 8L6 8L6 9L5 9L5 8L2 8L2 9L1 9L1 10L0 10L0 11L1 11L1 12L4 12L4 15L3 15L3 14L2 14L2 15L0 15L0 21L1 21L1 17L2 17L2 16L4 16L4 17L7 17L7 18L3 18L3 19L2 19L2 21L4 21L4 20L5 20L5 21L7 21L7 20L6 20L6 19L7 19L7 18L8 18L8 22L9 22L9 23L10 23L10 24L11 24L11 23L12 23L12 25L9 25L9 24L8 24L8 27L9 27L9 26L12 26L12 27L13 27L13 26L12 26L12 25L15 25L15 26L14 26L14 27L15 27L15 26L16 26L16 28L14 28L14 29L16 29L16 28L18 28L18 29L19 29L19 28L20 28L20 25L25 25L25 26L21 26L21 28L22 28L22 27L23 27L23 28L25 28L25 26L27 26L27 28L28 28L28 26L27 26L27 25L28 25L28 24L29 24L29 23L27 23L27 24L25 24L25 22L26 22L26 21L25 21L25 20L26 20L26 19L25 19L25 20L24 20L24 19L23 19L23 18L24 18L24 17L25 17L25 18L27 18L27 22L29 22L29 21L28 21L28 18L29 18L29 17L28 17L28 16L27 16L27 17L26 17L26 13L24 13L24 12L26 12L26 10L28 10L28 9L29 9L29 8L26 8L26 9L24 9L24 8L21 8L21 4L20 4L20 3L21 3L21 2L20 2L20 1L21 1L21 0L20 0L20 1L19 1L19 0L18 0L18 1L17 1L17 0L16 0L16 2L15 2L15 1L14 1L14 0ZM16 2L16 3L15 3L15 4L14 4L14 5L17 5L17 7L16 7L16 6L15 6L15 7L14 7L14 6L13 6L13 7L14 7L14 8L17 8L17 9L18 9L18 10L17 10L17 11L18 11L18 12L19 12L19 13L17 13L17 14L16 14L16 12L15 12L15 13L13 13L13 12L14 12L14 11L15 11L15 10L16 10L16 9L13 9L13 11L10 11L10 10L12 10L12 8L11 8L11 7L10 7L10 6L9 6L9 7L10 7L10 8L9 8L9 11L10 11L10 12L12 12L12 13L13 13L13 15L14 15L14 16L11 16L11 17L12 17L12 18L13 18L13 17L15 17L15 19L13 19L13 20L12 20L12 19L11 19L11 18L9 18L9 17L10 17L10 16L9 16L9 15L10 15L10 14L11 14L11 13L9 13L9 12L8 12L8 11L5 11L5 9L2 9L2 11L3 11L3 10L4 10L4 12L7 12L7 13L5 13L5 15L6 15L6 16L7 16L7 15L6 15L6 14L7 14L7 13L8 13L8 16L9 16L9 17L8 17L8 18L9 18L9 19L11 19L11 20L12 20L12 22L13 22L13 23L14 23L14 24L15 24L15 25L16 25L16 23L14 23L14 22L17 22L17 21L19 21L19 22L20 22L20 21L19 21L19 18L20 18L20 19L21 19L21 20L22 20L22 19L21 19L21 18L20 18L20 17L22 17L22 18L23 18L23 17L24 17L24 16L23 16L23 17L22 17L22 16L20 16L20 17L18 17L18 15L20 15L20 14L21 14L21 15L22 15L22 14L23 14L23 15L24 15L24 14L23 14L23 12L24 12L24 11L22 11L22 12L21 12L21 11L20 11L20 10L24 10L24 9L20 9L20 8L19 8L19 7L20 7L20 4L17 4L17 3L19 3L19 2ZM18 5L18 7L19 7L19 5ZM18 8L18 9L19 9L19 8ZM18 10L18 11L19 11L19 10ZM20 12L20 13L19 13L19 14L20 14L20 13L21 13L21 14L22 14L22 13L21 13L21 12ZM27 12L27 14L29 14L29 13L28 13L28 12ZM14 14L14 15L15 15L15 14ZM15 16L15 17L16 17L16 16ZM17 17L17 18L16 18L16 19L15 19L15 20L18 20L18 19L17 19L17 18L18 18L18 17ZM27 17L27 18L28 18L28 17ZM3 19L3 20L4 20L4 19ZM9 20L9 21L10 21L10 22L11 22L11 21L10 21L10 20ZM13 20L13 22L14 22L14 20ZM21 21L21 24L24 24L24 21ZM22 22L22 23L23 23L23 22ZM17 23L17 24L19 24L19 25L17 25L17 26L18 26L18 27L19 27L19 25L20 25L20 24L19 24L19 23ZM9 28L9 29L13 29L13 28ZM0 0L0 7L7 7L7 0ZM1 1L1 6L6 6L6 1ZM2 2L2 5L5 5L5 2ZM22 0L22 7L29 7L29 0ZM23 1L23 6L28 6L28 1ZM24 2L24 5L27 5L27 2ZM0 22L0 29L7 29L7 22ZM1 23L1 28L6 28L6 23ZM2 24L2 27L5 27L5 24Z" fill="#000000"/></g></g></svg>
