<?xml version="1.0" encoding="UTF-8"?>
<svg xmlns="http://www.w3.org/2000/svg" version="1.1" width="200" height="200" viewBox="0 0 200 200"><rect x="0" y="0" width="200" height="200" fill="#ffffff"/><g transform="scale(6.897)"><g transform="translate(0,0)"><path fill-rule="evenodd" d="M12 0L12 1L8 1L8 2L9 2L9 5L8 5L8 8L4 8L4 9L8 9L8 10L5 10L5 11L4 11L4 13L3 13L3 9L2 9L2 13L1 13L1 12L0 12L0 13L1 13L1 14L0 14L0 18L2 18L2 19L4 19L4 20L3 20L3 21L4 21L4 20L5 20L5 21L8 21L8 25L9 25L9 27L10 27L10 28L9 28L9 29L11 29L11 28L12 28L12 27L14 27L14 25L16 25L16 26L20 26L20 25L21 25L21 27L22 27L22 25L23 25L23 26L24 26L24 25L26 25L26 26L27 26L27 28L26 28L26 27L25 27L25 29L28 29L28 28L29 28L29 26L28 26L28 24L29 24L29 22L28 22L28 21L27 21L27 20L26 20L26 18L27 18L27 19L28 19L28 20L29 20L29 17L25 17L25 16L24 16L24 14L25 14L25 15L26 15L26 14L28 14L28 15L27 15L27 16L28 16L28 15L29 15L29 14L28 14L28 13L27 13L27 12L26 12L26 11L28 11L28 12L29 12L29 9L28 9L28 8L27 8L27 9L25 9L25 10L24 10L24 8L22 8L22 9L23 9L23 11L22 11L22 10L21 10L21 11L20 11L20 9L21 9L21 8L20 8L20 7L21 7L21 6L20 6L20 5L19 5L19 6L18 6L18 4L17 4L17 5L16 5L16 2L17 2L17 3L19 3L19 2L20 2L20 1L21 1L21 0L19 0L19 1L17 1L17 0L15 0L15 3L12 3L12 1L13 1L13 2L14 2L14 1L13 1L13 0ZM10 3L10 5L11 5L11 4L12 4L12 3ZM20 3L20 4L21 4L21 3ZM13 4L13 5L12 5L12 6L11 6L11 7L10 7L10 6L9 6L9 8L8 8L8 9L9 9L9 10L8 10L8 11L6 11L6 12L8 12L8 13L6 13L6 14L5 14L5 13L4 13L4 15L3 15L3 13L2 13L2 14L1 14L1 15L3 15L3 16L2 16L2 18L3 18L3 17L6 17L6 18L5 18L5 20L8 20L8 19L10 19L10 18L12 18L12 19L13 19L13 22L11 22L11 21L12 21L12 20L11 20L11 21L10 21L10 20L9 20L9 21L10 21L10 23L9 23L9 25L11 25L11 26L10 26L10 27L11 27L11 26L12 26L12 25L13 25L13 22L14 22L14 23L15 23L15 22L16 22L16 21L15 21L15 22L14 22L14 20L15 20L15 19L16 19L16 20L18 20L18 21L19 21L19 23L20 23L20 21L19 21L19 20L21 20L21 19L20 19L20 18L16 18L16 17L17 17L17 16L16 16L16 15L14 15L14 12L15 12L15 13L16 13L16 14L17 14L17 13L16 13L16 12L15 12L15 11L17 11L17 12L18 12L18 17L22 17L22 18L24 18L24 19L25 19L25 18L24 18L24 16L22 16L22 15L21 15L21 13L20 13L20 12L19 12L19 10L18 10L18 9L19 9L19 7L20 7L20 6L19 6L19 7L18 7L18 6L17 6L17 8L15 8L15 7L16 7L16 6L15 6L15 7L14 7L14 6L13 6L13 5L14 5L14 4ZM12 6L12 8L9 8L9 9L12 9L12 8L13 8L13 10L11 10L11 11L10 11L10 10L9 10L9 11L8 11L8 12L9 12L9 13L8 13L8 14L9 14L9 16L10 16L10 15L11 15L11 14L12 14L12 15L13 15L13 16L12 16L12 18L13 18L13 19L15 19L15 17L14 17L14 18L13 18L13 16L14 16L14 15L13 15L13 12L14 12L14 11L13 11L13 10L16 10L16 9L15 9L15 8L13 8L13 6ZM0 9L0 11L1 11L1 9ZM17 10L17 11L18 11L18 10ZM25 10L25 11L26 11L26 10ZM9 11L9 12L10 12L10 14L11 14L11 12L12 12L12 11L11 11L11 12L10 12L10 11ZM23 11L23 12L22 12L22 14L23 14L23 13L26 13L26 12L24 12L24 11ZM6 14L6 15L5 15L5 16L6 16L6 17L7 17L7 18L6 18L6 19L8 19L8 17L7 17L7 16L8 16L8 15L7 15L7 14ZM6 15L6 16L7 16L7 15ZM19 15L19 16L20 16L20 15ZM9 17L9 18L10 18L10 17ZM0 20L0 21L2 21L2 20ZM25 20L25 21L26 21L26 20ZM21 21L21 24L24 24L24 21ZM17 22L17 23L16 23L16 24L18 24L18 22ZM22 22L22 23L23 23L23 22ZM27 22L27 23L26 23L26 24L28 24L28 22ZM10 23L10 24L12 24L12 23ZM18 27L18 28L17 28L17 29L18 29L18 28L19 28L19 27ZM14 28L14 29L15 29L15 28ZM22 28L22 29L23 29L23 28ZM0 0L0 7L7 7L7 0ZM1 1L1 6L6 6L6 1ZM2 2L2 5L5 5L5 2ZM22 0L22 7L29 7L29 0ZM23 1L23 6L28 6L28 1ZM24 2L24 5L27 5L27 2ZM0 22L0 29L7 29L7 22ZM1 23L1 28L6 28L6 23ZM2 24L2 27L5 27L5 24Z" fill="#000000"/></g></g></svg>
