<?xml version="1.0" encoding="UTF-8"?>
<svg xmlns="http://www.w3.org/2000/svg" version="1.1" width="200" height="200" viewBox="0 0 200 200"><rect x="0" y="0" width="200" height="200" fill="#ffffff"/><g transform="scale(6.897)"><g transform="translate(0,0)"><path fill-rule="evenodd" d="M11 0L11 1L10 1L10 2L11 2L11 3L10 3L10 7L9 7L9 6L8 6L8 7L9 7L9 8L10 8L10 9L8 9L8 8L6 8L6 9L5 9L5 8L3 8L3 9L4 9L4 10L5 10L5 11L3 11L3 10L2 10L2 9L1 9L1 11L0 11L0 12L2 12L2 13L0 13L0 14L2 14L2 15L1 15L1 16L2 16L2 17L0 17L0 21L2 21L2 19L3 19L3 21L5 21L5 20L6 20L6 21L7 21L7 20L8 20L8 19L7 19L7 18L9 18L9 21L8 21L8 23L9 23L9 24L8 24L8 26L9 26L9 28L10 28L10 27L11 27L11 29L15 29L15 28L16 28L16 29L18 29L18 28L20 28L20 29L21 29L21 27L22 27L22 28L23 28L23 29L25 29L25 28L24 28L24 27L26 27L26 29L27 29L27 27L28 27L28 28L29 28L29 26L28 26L28 25L29 25L29 24L28 24L28 25L26 25L26 22L27 22L27 23L28 23L28 21L29 21L29 20L27 20L27 19L29 19L29 18L28 18L28 16L29 16L29 12L28 12L28 13L27 13L27 12L26 12L26 11L27 11L27 8L25 8L25 9L24 9L24 11L23 11L23 9L21 9L21 5L20 5L20 4L21 4L21 1L20 1L20 0L18 0L18 1L20 1L20 3L19 3L19 2L18 2L18 3L19 3L19 5L18 5L18 4L16 4L16 5L17 5L17 6L16 6L16 8L17 8L17 6L18 6L18 7L19 7L19 5L20 5L20 10L21 10L21 12L19 12L19 11L17 11L17 13L14 13L14 12L15 12L15 11L16 11L16 10L15 10L15 8L14 8L14 7L15 7L15 3L16 3L16 2L17 2L17 0L16 0L16 2L15 2L15 0ZM11 1L11 2L12 2L12 4L13 4L13 1ZM8 2L8 4L9 4L9 2ZM11 6L11 7L10 7L10 8L12 8L12 9L13 9L13 11L12 11L12 10L11 10L11 9L10 9L10 10L9 10L9 11L10 11L10 10L11 10L11 11L12 11L12 12L11 12L11 13L10 13L10 12L8 12L8 10L7 10L7 9L6 9L6 10L7 10L7 11L6 11L6 12L7 12L7 13L4 13L4 12L3 12L3 11L2 11L2 12L3 12L3 13L4 13L4 14L3 14L3 15L2 15L2 16L3 16L3 17L2 17L2 18L3 18L3 19L4 19L4 18L7 18L7 17L5 17L5 16L8 16L8 17L9 17L9 18L12 18L12 19L10 19L10 21L9 21L9 23L10 23L10 21L12 21L12 23L13 23L13 22L14 22L14 24L13 24L13 25L11 25L11 24L10 24L10 26L12 26L12 27L14 27L14 28L15 28L15 27L16 27L16 28L18 28L18 27L16 27L16 26L17 26L17 24L19 24L19 22L17 22L17 23L16 23L16 26L14 26L14 24L15 24L15 19L13 19L13 17L14 17L14 16L15 16L15 18L16 18L16 16L17 16L17 14L18 14L18 15L19 15L19 14L20 14L20 16L18 16L18 20L17 20L17 21L18 21L18 20L19 20L19 21L20 21L20 20L21 20L21 19L22 19L22 20L23 20L23 18L24 18L24 20L26 20L26 19L27 19L27 18L26 18L26 17L27 17L27 16L26 16L26 15L27 15L27 13L26 13L26 12L25 12L25 13L26 13L26 15L25 15L25 16L26 16L26 17L23 17L23 18L22 18L22 16L23 16L23 14L22 14L22 12L21 12L21 13L19 13L19 12L18 12L18 13L17 13L17 14L16 14L16 15L15 15L15 14L13 14L13 15L12 15L12 13L13 13L13 12L14 12L14 8L12 8L12 6ZM13 6L13 7L14 7L14 6ZM18 8L18 9L19 9L19 8ZM25 9L25 11L26 11L26 9ZM23 12L23 13L24 13L24 12ZM18 13L18 14L19 14L19 13ZM4 14L4 15L3 15L3 16L4 16L4 15L7 15L7 14ZM8 14L8 16L9 16L9 17L10 17L10 16L11 16L11 14ZM9 15L9 16L10 16L10 15ZM13 15L13 16L14 16L14 15ZM20 16L20 19L21 19L21 16ZM3 17L3 18L4 18L4 17ZM25 18L25 19L26 19L26 18ZM6 19L6 20L7 20L7 19ZM13 20L13 21L14 21L14 20ZM21 21L21 24L24 24L24 21ZM25 21L25 22L26 22L26 21ZM22 22L22 23L23 23L23 22ZM18 25L18 26L20 26L20 27L21 27L21 26L20 26L20 25ZM22 25L22 27L23 27L23 26L26 26L26 27L27 27L27 26L26 26L26 25ZM0 0L0 7L7 7L7 0ZM1 1L1 6L6 6L6 1ZM2 2L2 5L5 5L5 2ZM22 0L22 7L29 7L29 0ZM23 1L23 6L28 6L28 1ZM24 2L24 5L27 5L27 2ZM0 22L0 29L7 29L7 22ZM1 23L1 28L6 28L6 23ZM2 24L2 27L5 27L5 24Z" fill="#000000"/></g></g></svg>
