<?xml version="1.0" encoding="UTF-8"?>
<svg xmlns="http://www.w3.org/2000/svg" version="1.1" width="200" height="200" viewBox="0 0 200 200"><rect x="0" y="0" width="200" height="200" fill="#ffffff"/><g transform="scale(6.897)"><g transform="translate(0,0)"><path fill-rule="evenodd" d="M8 0L8 3L9 3L9 5L8 5L8 9L7 9L7 8L6 8L6 9L5 9L5 8L2 8L2 9L0 9L0 10L1 10L1 11L2 11L2 12L3 12L3 13L1 13L1 14L0 14L0 21L1 21L1 18L2 18L2 17L3 17L3 16L2 16L2 15L3 15L3 14L4 14L4 15L5 15L5 14L6 14L6 15L7 15L7 16L4 16L4 17L5 17L5 18L4 18L4 19L2 19L2 20L3 20L3 21L5 21L5 20L6 20L6 21L8 21L8 22L9 22L9 21L10 21L10 20L11 20L11 21L12 21L12 22L13 22L13 21L14 21L14 23L13 23L13 24L14 24L14 25L15 25L15 24L14 24L14 23L17 23L17 25L16 25L16 26L15 26L15 28L13 28L13 25L12 25L12 23L11 23L11 22L10 22L10 24L8 24L8 27L9 27L9 29L10 29L10 27L9 27L9 25L12 25L12 26L11 26L11 27L12 27L12 29L15 29L15 28L16 28L16 29L19 29L19 28L20 28L20 27L19 27L19 26L21 26L21 28L22 28L22 27L23 27L23 28L25 28L25 25L26 25L26 27L27 27L27 28L28 28L28 26L27 26L27 25L28 25L28 24L29 24L29 23L27 23L27 22L26 22L26 23L25 23L25 21L26 21L26 19L25 19L25 20L24 20L24 19L23 19L23 20L21 20L21 19L20 19L20 18L22 18L22 17L23 17L23 18L24 18L24 17L26 17L26 15L27 15L27 17L28 17L28 18L27 18L27 21L28 21L28 18L29 18L29 17L28 17L28 16L29 16L29 15L27 15L27 14L28 14L28 12L29 12L29 11L28 11L28 12L27 12L27 13L26 13L26 10L29 10L29 8L26 8L26 10L25 10L25 9L24 9L24 8L18 8L18 9L17 9L17 5L15 5L15 4L14 4L14 5L15 5L15 6L14 6L14 7L13 7L13 4L12 4L12 8L14 8L14 7L15 7L15 6L16 6L16 9L15 9L15 10L16 10L16 11L15 11L15 12L14 12L14 15L15 15L15 12L16 12L16 17L15 17L15 16L13 16L13 11L12 11L12 10L13 10L13 9L11 9L11 8L10 8L10 9L9 9L9 5L10 5L10 4L11 4L11 2L12 2L12 1L11 1L11 0ZM14 0L14 1L13 1L13 2L14 2L14 1L15 1L15 2L16 2L16 4L18 4L18 7L19 7L19 5L20 5L20 7L21 7L21 4L20 4L20 3L21 3L21 2L20 2L20 1L21 1L21 0L20 0L20 1L19 1L19 0L17 0L17 1L15 1L15 0ZM9 1L9 2L10 2L10 1ZM17 1L17 3L18 3L18 4L19 4L19 2L18 2L18 1ZM10 6L10 7L11 7L11 6ZM2 9L2 10L3 10L3 11L4 11L4 14L5 14L5 13L6 13L6 14L7 14L7 15L8 15L8 16L7 16L7 17L6 17L6 18L5 18L5 19L4 19L4 20L5 20L5 19L6 19L6 20L8 20L8 21L9 21L9 19L8 19L8 16L9 16L9 17L10 17L10 16L9 16L9 15L11 15L11 17L12 17L12 18L13 18L13 19L12 19L12 21L13 21L13 19L14 19L14 18L13 18L13 17L12 17L12 14L11 14L11 13L8 13L8 14L7 14L7 13L6 13L6 12L10 12L10 11L11 11L11 9L10 9L10 10L9 10L9 11L8 11L8 10L7 10L7 9L6 9L6 10L3 10L3 9ZM16 9L16 10L17 10L17 11L16 11L16 12L18 12L18 16L17 16L17 18L16 18L16 19L15 19L15 20L16 20L16 21L18 21L18 22L17 22L17 23L18 23L18 25L17 25L17 26L16 26L16 27L18 27L18 28L19 28L19 27L18 27L18 26L19 26L19 25L20 25L20 24L19 24L19 23L20 23L20 21L19 21L19 19L18 19L18 16L19 16L19 15L20 15L20 17L19 17L19 18L20 18L20 17L22 17L22 16L21 16L21 15L22 15L22 13L23 13L23 12L24 12L24 13L25 13L25 12L24 12L24 11L23 11L23 10L24 10L24 9L18 9L18 10L17 10L17 9ZM6 10L6 11L5 11L5 12L6 12L6 11L7 11L7 10ZM20 10L20 11L22 11L22 10ZM18 11L18 12L19 12L19 11ZM20 12L20 13L19 13L19 14L20 14L20 13L22 13L22 12ZM23 15L23 17L24 17L24 15ZM1 16L1 17L2 17L2 16ZM6 18L6 19L7 19L7 18ZM16 19L16 20L17 20L17 19ZM21 21L21 24L24 24L24 21ZM18 22L18 23L19 23L19 22ZM22 22L22 23L23 23L23 22ZM26 23L26 24L27 24L27 23ZM21 25L21 26L24 26L24 25ZM0 0L0 7L7 7L7 0ZM1 1L1 6L6 6L6 1ZM2 2L2 5L5 5L5 2ZM22 0L22 7L29 7L29 0ZM23 1L23 6L28 6L28 1ZM24 2L24 5L27 5L27 2ZM0 22L0 29L7 29L7 22ZM1 23L1 28L6 28L6 23ZM2 24L2 27L5 27L5 24Z" fill="#000000"/></g></g></svg>
