<?xml version="1.0" encoding="UTF-8"?>
<svg xmlns="http://www.w3.org/2000/svg" version="1.1" width="200" height="200" viewBox="0 0 200 200"><rect x="0" y="0" width="200" height="200" fill="#ffffff"/><g transform="scale(6.897)"><g transform="translate(0,0)"><path fill-rule="evenodd" d="M8 0L8 3L9 3L9 1L10 1L10 0ZM11 0L11 4L10 4L10 7L11 7L11 8L9 8L9 5L8 5L8 9L9 9L9 10L6 10L6 11L5 11L5 12L4 12L4 11L3 11L3 12L2 12L2 13L0 13L0 14L2 14L2 13L5 13L5 12L6 12L6 13L7 13L7 14L6 14L6 15L7 15L7 16L5 16L5 19L4 19L4 16L3 16L3 15L4 15L4 14L3 14L3 15L2 15L2 16L1 16L1 15L0 15L0 21L1 21L1 17L2 17L2 16L3 16L3 20L2 20L2 21L3 21L3 20L4 20L4 21L5 21L5 19L8 19L8 22L9 22L9 24L8 24L8 27L9 27L9 29L10 29L10 27L11 27L11 28L13 28L13 27L11 27L11 24L12 24L12 23L13 23L13 25L12 25L12 26L14 26L14 23L13 23L13 21L15 21L15 20L16 20L16 21L17 21L17 22L16 22L16 24L15 24L15 25L16 25L16 26L17 26L17 25L16 25L16 24L18 24L18 27L19 27L19 28L20 28L20 27L19 27L19 26L20 26L20 25L21 25L21 26L22 26L22 27L21 27L21 28L22 28L22 27L23 27L23 29L25 29L25 24L26 24L26 23L25 23L25 20L26 20L26 22L27 22L27 23L28 23L28 22L29 22L29 21L28 21L28 18L29 18L29 17L28 17L28 18L25 18L25 20L24 20L24 19L23 19L23 20L22 20L22 19L20 19L20 18L22 18L22 17L23 17L23 18L24 18L24 17L25 17L25 16L26 16L26 17L27 17L27 16L28 16L28 14L29 14L29 13L28 13L28 11L27 11L27 10L26 10L26 9L28 9L28 10L29 10L29 8L26 8L26 9L24 9L24 8L18 8L18 9L16 9L16 8L17 8L17 6L16 6L16 7L15 7L15 6L14 6L14 7L13 7L13 6L12 6L12 5L11 5L11 4L12 4L12 3L14 3L14 4L13 4L13 5L17 5L17 4L18 4L18 3L19 3L19 4L20 4L20 5L21 5L21 4L20 4L20 3L21 3L21 2L20 2L20 1L21 1L21 0L20 0L20 1L19 1L19 0L18 0L18 1L17 1L17 2L18 2L18 3L16 3L16 4L15 4L15 3L14 3L14 2L15 2L15 0ZM18 5L18 7L19 7L19 5ZM11 6L11 7L12 7L12 6ZM20 6L20 7L21 7L21 6ZM2 8L2 9L1 9L1 10L0 10L0 12L1 12L1 10L5 10L5 8ZM6 8L6 9L7 9L7 8ZM13 8L13 9L14 9L14 11L13 11L13 12L14 12L14 11L15 11L15 12L18 12L18 11L19 11L19 13L16 13L16 14L17 14L17 15L14 15L14 14L15 14L15 13L14 13L14 14L13 14L13 13L12 13L12 9L10 9L10 10L11 10L11 11L10 11L10 12L9 12L9 11L8 11L8 12L9 12L9 13L8 13L8 14L7 14L7 15L8 15L8 16L7 16L7 17L6 17L6 18L8 18L8 17L10 17L10 18L11 18L11 17L13 17L13 16L12 16L12 15L14 15L14 16L15 16L15 17L17 17L17 18L16 18L16 20L17 20L17 21L19 21L19 22L17 22L17 23L20 23L20 21L19 21L19 20L17 20L17 18L20 18L20 17L22 17L22 16L20 16L20 17L19 17L19 15L22 15L22 13L24 13L24 11L23 11L23 12L22 12L22 11L20 11L20 10L24 10L24 9L18 9L18 10L16 10L16 11L15 11L15 8ZM6 11L6 12L7 12L7 11ZM26 11L26 12L25 12L25 13L26 13L26 14L23 14L23 15L24 15L24 16L23 16L23 17L24 17L24 16L25 16L25 15L26 15L26 16L27 16L27 15L26 15L26 14L28 14L28 13L26 13L26 12L27 12L27 11ZM21 12L21 13L19 13L19 14L18 14L18 15L17 15L17 16L18 16L18 15L19 15L19 14L21 14L21 13L22 13L22 12ZM10 13L10 14L12 14L12 13ZM9 15L9 16L10 16L10 15ZM12 18L12 19L10 19L10 20L9 20L9 22L10 22L10 24L11 24L11 22L12 22L12 21L13 21L13 20L14 20L14 19L15 19L15 18ZM26 19L26 20L27 20L27 19ZM6 20L6 21L7 21L7 20ZM11 20L11 21L12 21L12 20ZM21 21L21 24L24 24L24 21ZM27 21L27 22L28 22L28 21ZM22 22L22 23L23 23L23 22ZM19 24L19 25L20 25L20 24ZM27 24L27 25L28 25L28 24ZM22 25L22 26L24 26L24 25ZM9 26L9 27L10 27L10 26ZM26 26L26 27L27 27L27 28L28 28L28 26ZM14 27L14 28L15 28L15 27ZM16 27L16 28L17 28L17 29L18 29L18 28L17 28L17 27ZM0 0L0 7L7 7L7 0ZM1 1L1 6L6 6L6 1ZM2 2L2 5L5 5L5 2ZM22 0L22 7L29 7L29 0ZM23 1L23 6L28 6L28 1ZM24 2L24 5L27 5L27 2ZM0 22L0 29L7 29L7 22ZM1 23L1 28L6 28L6 23ZM2 24L2 27L5 27L5 24Z" fill="#000000"/></g></g></svg>
