<?xml version="1.0" encoding="UTF-8"?>
<svg xmlns="http://www.w3.org/2000/svg" version="1.1" width="200" height="200" viewBox="0 0 200 200"><rect x="0" y="0" width="200" height="200" fill="#ffffff"/><g transform="scale(6.897)"><g transform="translate(0,0)"><path fill-rule="evenodd" d="M8 0L8 3L10 3L10 1L11 1L11 2L14 2L14 0ZM18 0L18 1L19 1L19 4L18 4L18 7L19 7L19 8L18 8L18 9L19 9L19 8L20 8L20 9L24 9L24 10L23 10L23 11L24 11L24 12L23 12L23 13L21 13L21 12L22 12L22 10L20 10L20 11L21 11L21 12L20 12L20 14L22 14L22 15L20 15L20 16L22 16L22 17L20 17L20 18L19 18L19 21L17 21L17 18L15 18L15 20L14 20L14 17L15 17L15 16L18 16L18 17L19 17L19 15L14 15L14 17L13 17L13 15L12 15L12 16L10 16L10 17L11 17L11 20L10 20L10 18L8 18L8 19L7 19L7 18L6 18L6 19L5 19L5 18L2 18L2 19L3 19L3 20L6 20L6 21L7 21L7 20L8 20L8 22L10 22L10 23L9 23L9 24L8 24L8 27L10 27L10 28L9 28L9 29L12 29L12 27L11 27L11 26L14 26L14 27L18 27L18 28L20 28L20 26L22 26L22 27L21 27L21 28L22 28L22 27L24 27L24 28L23 28L23 29L25 29L25 25L27 25L27 24L28 24L28 25L29 25L29 23L28 23L28 22L29 22L29 21L28 21L28 18L29 18L29 17L28 17L28 16L29 16L29 15L28 15L28 16L27 16L27 17L26 17L26 18L27 18L27 21L28 21L28 22L27 22L27 24L25 24L25 23L26 23L26 19L25 19L25 20L24 20L24 19L23 19L23 18L24 18L24 17L25 17L25 16L26 16L26 15L27 15L27 14L28 14L28 13L27 13L27 12L26 12L26 10L27 10L27 9L28 9L28 10L29 10L29 8L26 8L26 10L25 10L25 9L24 9L24 8L21 8L21 2L20 2L20 1L21 1L21 0L20 0L20 1L19 1L19 0ZM16 1L16 3L13 3L13 4L10 4L10 5L8 5L8 10L6 10L6 9L7 9L7 8L6 8L6 9L5 9L5 8L2 8L2 13L1 13L1 10L0 10L0 13L1 13L1 14L3 14L3 11L4 11L4 12L5 12L5 10L6 10L6 11L7 11L7 12L6 12L6 13L5 13L5 14L4 14L4 15L3 15L3 17L4 17L4 16L5 16L5 17L8 17L8 16L9 16L9 15L8 15L8 14L11 14L11 13L12 13L12 14L13 14L13 13L14 13L14 12L15 12L15 11L14 11L14 10L15 10L15 9L16 9L16 10L17 10L17 12L16 12L16 14L17 14L17 13L18 13L18 14L19 14L19 11L18 11L18 10L17 10L17 9L16 9L16 8L17 8L17 6L16 6L16 5L17 5L17 4L16 4L16 3L17 3L17 1ZM13 4L13 5L11 5L11 7L10 7L10 6L9 6L9 8L10 8L10 9L9 9L9 10L8 10L8 12L7 12L7 13L6 13L6 14L5 14L5 16L7 16L7 15L6 15L6 14L7 14L7 13L11 13L11 11L12 11L12 12L14 12L14 11L12 11L12 10L11 10L11 11L10 11L10 9L11 9L11 7L12 7L12 8L13 8L13 10L14 10L14 9L15 9L15 7L16 7L16 6L15 6L15 7L14 7L14 5L16 5L16 4ZM19 4L19 7L20 7L20 4ZM12 6L12 7L13 7L13 8L14 8L14 7L13 7L13 6ZM3 9L3 10L5 10L5 9ZM28 11L28 12L29 12L29 11ZM24 12L24 13L25 13L25 14L23 14L23 17L22 17L22 18L20 18L20 19L21 19L21 20L23 20L23 19L22 19L22 18L23 18L23 17L24 17L24 16L25 16L25 14L27 14L27 13L26 13L26 12ZM0 15L0 21L1 21L1 15ZM27 17L27 18L28 18L28 17ZM6 19L6 20L7 20L7 19ZM8 19L8 20L9 20L9 21L10 21L10 22L11 22L11 23L10 23L10 24L9 24L9 26L10 26L10 25L12 25L12 24L13 24L13 23L12 23L12 22L14 22L14 23L15 23L15 22L16 22L16 20L15 20L15 21L12 21L12 20L11 20L11 21L10 21L10 20L9 20L9 19ZM21 21L21 24L24 24L24 21ZM17 22L17 23L16 23L16 24L17 24L17 25L15 25L15 26L17 26L17 25L19 25L19 26L18 26L18 27L19 27L19 26L20 26L20 24L19 24L19 22ZM22 22L22 23L23 23L23 22ZM11 23L11 24L12 24L12 23ZM17 23L17 24L18 24L18 23ZM22 25L22 26L23 26L23 25ZM27 26L27 28L28 28L28 26ZM14 28L14 29L15 29L15 28ZM16 28L16 29L17 29L17 28ZM0 0L0 7L7 7L7 0ZM1 1L1 6L6 6L6 1ZM2 2L2 5L5 5L5 2ZM22 0L22 7L29 7L29 0ZM23 1L23 6L28 6L28 1ZM24 2L24 5L27 5L27 2ZM0 22L0 29L7 29L7 22ZM1 23L1 28L6 28L6 23ZM2 24L2 27L5 27L5 24Z" fill="#000000"/></g></g></svg>
