<?xml version="1.0" encoding="UTF-8"?>
<svg xmlns="http://www.w3.org/2000/svg" version="1.1" width="200" height="200" viewBox="0 0 200 200"><rect x="0" y="0" width="200" height="200" fill="#ffffff"/><g transform="scale(6.897)"><g transform="translate(0,0)"><path fill-rule="evenodd" d="M10 0L10 1L8 1L8 2L9 2L9 3L10 3L10 4L9 4L9 5L8 5L8 8L4 8L4 9L2 9L2 10L1 10L1 9L0 9L0 11L3 11L3 12L4 12L4 13L7 13L7 14L5 14L5 16L4 16L4 17L3 17L3 14L2 14L2 15L1 15L1 13L2 13L2 12L0 12L0 16L1 16L1 17L0 17L0 18L1 18L1 17L2 17L2 18L6 18L6 19L5 19L5 21L7 21L7 20L8 20L8 25L9 25L9 24L10 24L10 23L9 23L9 22L10 22L10 21L13 21L13 22L14 22L14 21L17 21L17 22L15 22L15 23L14 23L14 24L11 24L11 25L10 25L10 27L9 27L9 28L10 28L10 29L11 29L11 26L13 26L13 27L12 27L12 28L13 28L13 29L14 29L14 28L13 28L13 27L14 27L14 24L15 24L15 23L17 23L17 24L16 24L16 25L15 25L15 26L16 26L16 25L17 25L17 24L18 24L18 26L17 26L17 27L19 27L19 28L17 28L17 29L22 29L22 28L23 28L23 26L25 26L25 27L26 27L26 25L25 25L25 23L26 23L26 22L28 22L28 23L27 23L27 24L28 24L28 23L29 23L29 21L27 21L27 20L29 20L29 17L28 17L28 16L29 16L29 13L28 13L28 15L27 15L27 20L26 20L26 19L25 19L25 18L26 18L26 17L25 17L25 16L26 16L26 15L25 15L25 14L26 14L26 9L24 9L24 8L22 8L22 9L20 9L20 7L21 7L21 6L20 6L20 5L19 5L19 4L20 4L20 3L21 3L21 1L20 1L20 0L17 0L17 1L16 1L16 2L15 2L15 3L16 3L16 4L14 4L14 2L12 2L12 4L14 4L14 5L13 5L13 6L12 6L12 5L11 5L11 6L10 6L10 4L11 4L11 0ZM13 0L13 1L15 1L15 0ZM17 1L17 2L16 2L16 3L17 3L17 5L15 5L15 7L14 7L14 6L13 6L13 7L14 7L14 10L13 10L13 8L12 8L12 6L11 6L11 8L12 8L12 10L11 10L11 9L10 9L10 8L8 8L8 11L9 11L9 12L8 12L8 14L7 14L7 15L6 15L6 16L5 16L5 17L6 17L6 18L7 18L7 19L6 19L6 20L7 20L7 19L8 19L8 20L9 20L9 19L10 19L10 20L11 20L11 19L12 19L12 20L13 20L13 19L14 19L14 18L15 18L15 20L16 20L16 18L17 18L17 20L18 20L18 22L17 22L17 23L18 23L18 22L19 22L19 23L20 23L20 22L19 22L19 21L20 21L20 20L18 20L18 19L19 19L19 18L17 18L17 17L16 17L16 18L15 18L15 17L13 17L13 16L16 16L16 15L15 15L15 14L14 14L14 12L15 12L15 11L14 11L14 10L17 10L17 9L18 9L18 11L17 11L17 12L16 12L16 13L17 13L17 15L20 15L20 16L18 16L18 17L20 17L20 19L21 19L21 20L22 20L22 19L21 19L21 18L23 18L23 17L24 17L24 18L25 18L25 17L24 17L24 16L25 16L25 15L24 15L24 16L23 16L23 14L21 14L21 11L20 11L20 10L19 10L19 9L18 9L18 8L16 8L16 6L17 6L17 7L18 7L18 3L17 3L17 2L18 2L18 1ZM19 1L19 2L20 2L20 1ZM9 6L9 7L10 7L10 6ZM19 6L19 7L20 7L20 6ZM15 8L15 9L16 9L16 8ZM27 8L27 9L28 9L28 8ZM4 9L4 11L5 11L5 12L7 12L7 11L5 11L5 10L7 10L7 9ZM9 9L9 10L10 10L10 12L9 12L9 15L8 15L8 16L12 16L12 15L10 15L10 14L11 14L11 13L10 13L10 12L12 12L12 14L13 14L13 15L14 15L14 14L13 14L13 11L11 11L11 10L10 10L10 9ZM22 9L22 13L23 13L23 11L24 11L24 13L25 13L25 10L24 10L24 9ZM28 10L28 12L29 12L29 10ZM18 11L18 12L19 12L19 13L18 13L18 14L20 14L20 12L19 12L19 11ZM21 15L21 16L20 16L20 17L23 17L23 16L22 16L22 15ZM6 16L6 17L7 17L7 18L8 18L8 19L9 19L9 18L8 18L8 17L7 17L7 16ZM10 17L10 18L11 18L11 17ZM12 17L12 18L13 18L13 17ZM2 19L2 20L0 20L0 21L2 21L2 20L4 20L4 19ZM23 19L23 20L24 20L24 19ZM25 20L25 22L26 22L26 20ZM21 21L21 24L24 24L24 21ZM11 22L11 23L12 23L12 22ZM22 22L22 23L23 23L23 22ZM19 25L19 27L20 27L20 28L21 28L21 26L20 26L20 25ZM22 25L22 26L23 26L23 25ZM27 25L27 28L24 28L24 29L28 29L28 28L29 28L29 26L28 26L28 25ZM15 27L15 29L16 29L16 27ZM0 0L0 7L7 7L7 0ZM1 1L1 6L6 6L6 1ZM2 2L2 5L5 5L5 2ZM22 0L22 7L29 7L29 0ZM23 1L23 6L28 6L28 1ZM24 2L24 5L27 5L27 2ZM0 22L0 29L7 29L7 22ZM1 23L1 28L6 28L6 23ZM2 24L2 27L5 27L5 24Z" fill="#000000"/></g></g></svg>
