<svg id="svg"
  xmlns="http://www.w3.org/2000/svg"
  xmlns:xlink="http://www.w3.org/1999/xlink" width="400" height="395.2" viewBox="0, 0, 400,395.2">
  <g id="svgg">
    <path id="path0" d="M22.504 1.233 C -22.455 10.988,2.013 78.741,86.274 177.810 L 103.122 197.620 91.623 211.999 C 15.065 307.725,-11.464 364.664,10.336 386.464 C 25.469 401.597,53.738 394.483,102.812 363.192 C 128.334 346.919,178.735 309.158,193.935 294.922 L 197.871 291.236 207.135 299.850 C 282.319 369.753,340.193 401.827,377.049 394.018 C 422.549 384.377,398.353 316.889,313.722 217.384 L 296.868 197.569 307.900 183.784 C 368.169 108.474,399.885 52.531,397.335 26.034 C 394.784 -0.472,371.182 -6.023,334.024 11.144 C 305.222 24.451,245.003 66.205,207.718 98.723 L 201.956 103.748 194.778 97.026 C 119.268 26.311,59.666 -6.830,22.504 1.233 M50.669 25.984 C 80.788 34.712,122.893 63.275,171.800 108.154 C 186.899 122.010,185.935 119.901,180.348 126.857 C 142.438 174.058,142.110 222.547,179.383 269.817 C 182.583 273.876,182.326 274.214,165.792 287.655 C 105.689 336.518,51.159 370.069,31.113 370.521 C 26.133 370.633,25.963 370.441,26.170 364.924 C 27.048 341.492,71.709 271.141,126.991 206.108 C 130.726 201.714,133.517 197.738,133.287 197.139 C 133.060 196.547,122.850 184.258,110.598 169.831 C 57.690 107.531,25.636 56.825,23.456 31.982 C 22.656 22.862,32.448 20.704,50.669 25.984 M372.379 24.800 C 375.299 24.800,373.858 36.080,369.554 46.917 C 357.127 78.199,319.098 134.236,273.352 188.673 C 269.528 193.223,266.400 197.239,266.400 197.598 C 266.400 197.957,276.893 210.614,289.717 225.725 C 342.056 287.398,374.473 338.752,376.565 363.310 C 378.040 380.625,341.585 371.704,300.299 344.647 C 267.216 322.965,216.126 278.930,200.699 258.800 C 167.233 215.134,166.573 183.167,198.296 142.400 C 229.469 102.338,351.606 18.577,370.265 24.464 C 370.851 24.649,371.802 24.800,372.379 24.800 " stroke="currentColor" fill="currentColor" fill-rule="evenodd"></path>
  </g>
</svg>